<?xml version="1.0" encoding="UTF-8"?><svg id="Layer_2" xmlns="http://www.w3.org/2000/svg" viewBox="0 0 1024.74 1028.6"><defs><style>.cls-1{fill:#efece1;}.cls-2{fill:#0e0d0e;}</style></defs><g id="Layer_1-2"><g><path class="cls-1" d="M1024.66,516.41c0,18.54,.01,37.08,0,55.62,0,5.76,.04,11.5-2.48,16.94-.78,1.68-1.02,3.71-1.09,5.6-.26,6.4-.56,12.71-3.15,18.77-.96,2.25-.67,5.03-.99,7.56-.24,1.9-.15,3.95-.89,5.65-2.07,4.77-2.83,9.8-3.56,14.86-2.75,5.2-2.69,11.13-4.33,16.62-1.46,4.89-3.34,9.65-4.87,14.52-.76,2.42-1.13,4.96-1.71,7.43-.43,1.86-.57,3.88-1.43,5.53-4.44,8.52-6.75,17.9-10.84,26.57-3.8,8.06-6.25,16.7-10.53,24.6-3.96,7.3-7.54,14.8-11.22,22.25-2.83,5.73-5.48,11.56-9.7,16.46-.41,.48-.76,1.04-1.04,1.61-5.29,10.97-12.45,20.76-19.19,30.84-2.49,3.73-4.89,7.44-7.93,10.75-1.71,1.87-3.32,3.93-4.51,6.15-1.85,3.44-4.32,6.31-7,9.06-3.57,3.66-7.05,7.32-9.51,11.94-1.47,2.75-3.82,5.11-6.05,7.36-16.22,16.33-32.52,32.58-48.79,48.86-3.17,3.17-6.36,6.29-10.53,8.2-1.14,.53-2.28,1.25-3.16,2.14-6.29,6.41-13.31,11.89-20.87,16.69-4.21,5.01-10.17,7.67-15.39,11.29-7.86,5.43-15.54,11.2-24.3,15.2-.58,.27-1.24,.45-1.72,.84-9.03,7.35-19.82,11.59-30.01,16.85-9.65,4.98-19.49,9.6-29.17,14.53-5.15,2.62-11.07,3.1-16.06,6.16-4.39,2.69-9.44,3.82-14.29,5.4-10.31,3.35-20.56,6.86-30.84,10.32-3.02,1.02-5.99,2.69-9.07,2.95-6.48,.53-12.24,3.63-18.57,4.51-1.9,.26-3.97,.24-5.63,1.04-5.38,2.63-11.1,2.7-16.85,3-2.52,.13-5.13,.52-7.47,1.4-4.27,1.6-8.61,2.29-13.13,2.28-5.76,0-11.49,.09-16.94,2.52-1.7,.76-3.71,.91-5.6,1.11-1.9,.21-3.83,.18-5.75,.18-31.96,0-63.93,0-95.89,.01-5.15,0-10.23-.21-15.01-2.43-.57-.27-1.2-.52-1.82-.57-5.08-.48-10.2-.7-15.25-1.42-4.39-.63-8.34-3.24-12.96-3.17-4.54,.07-8.85-.99-13.02-2.78-1.15-.49-2.49-.87-3.72-.81-7.25,.35-13.76-2.53-20.44-4.58-4.88-1.5-9.57-3.59-14.77-3.81-7.88-2.55-15.96-4.65-23.61-7.78-9.44-3.86-19.1-7.18-28.34-11.51-6.36-2.98-12.42-6.61-19.4-8.06-9.69-4.86-19.84-8.85-28.68-15.32-2.05-1.5-4.36-2.64-6.58-3.89-4.46-2.48-9.04-4.7-13.09-7.93-2.46-1.96-5.4-3.42-8.29-4.73-4.72-2.14-8.56-5.57-12.91-8.2-3.86-2.33-7.47-4.84-10.78-7.9-1.86-1.72-3.9-3.38-6.13-4.53-4.07-2.1-7.28-5.17-10.45-8.32-3.19-3.16-6.58-5.96-10.56-8.17-2.74-1.52-5.08-3.85-7.38-6.04-4.63-4.41-9.12-8.97-13.65-13.48-2.73-2.72-5.72-5.01-9.05-7.01-6.1-3.67-11.13-8.59-14.62-14.85-1.9-3.41-4.44-6.23-7.14-8.96-4.5-4.55-9.04-9.05-13.48-13.64-1.77-1.83-3.75-3.65-4.9-5.85-2.71-5.21-6.58-9.39-10.65-13.47-2.73-2.73-5.04-5.73-6.8-9.21-.85-1.69-2.03-3.31-3.39-4.61-4.23-4.03-6.85-9.19-10.22-13.81-3.04-4.17-5.34-8.69-7.93-13.08-2.91-4.94-6.07-9.72-9.02-14.64-2.62-4.37-4.89-8.92-7.75-13.2-6.02-9.04-10.74-18.84-14.58-29.03-.67-1.79-1.01-3.72-1.81-5.44-2.41-5.22-4.9-10.41-7.51-15.54-2.62-5.15-3.03-11.11-6.16-16.06-3.46-5.48-4.63-11.91-6.61-17.93-1.98-6.01-4.87-11.83-5.22-18.36-.1-1.86-.81-3.75-1.53-5.51-3.89-9.48-5.37-19.66-8.5-29.35-1-3.1-1.18-6.27-1.2-9.46-.03-4.52-.66-8.9-2.46-13.09-1.29-3-1.19-6.24-1.42-9.42-.23-3.18-.62-6.34-.94-9.52C-.35,575.56,.01,568.48,.01,561.45c-.01-30.69-.01-61.38,0-92.07,0-6.39-.25-12.83,2.73-18.8,.36-3.16,.89-6.32,1.03-9.49,.25-5.74-.07-11.53,2.64-16.91,.56-1.11,.8-2.45,.89-3.71,.4-5.75,1.38-11.3,3.28-16.83,1.64-4.76,1.8-9.97,3.73-14.8,1.39-3.49,1.3-7.55,2.46-11.17,4.67-14.58,9.54-29.09,14.41-43.6,.81-2.41,1.97-4.7,3.01-7.04,3.12-6.98,7.23-13.51,8.93-21.13,.54-2.44,2.01-4.69,3.15-6.97,4.27-8.58,8.54-17.16,12.88-25.71,2.02-3.98,3.89-8.06,6.92-11.45,.85-.94,1.61-2.02,2.15-3.16,6.36-13.31,15.32-25,23.41-37.22,3.86-5.82,7.16-12.1,12.46-16.92,1.37-1.25,2.33-3.04,3.21-4.72,1.51-2.87,3.48-5.35,5.73-7.64,3.58-3.65,7.21-7.26,10.75-10.95,1.77-1.84,3.87-3.58,4.97-5.79,3.53-7.06,9.33-12.11,14.7-17.55,5.84-5.91,11.74-11.77,17.63-17.64,4.07-4.06,8.15-8,13.3-10.86,3.27-1.82,5.92-4.82,8.7-7.44,4.64-4.38,8.94-9.09,14.82-12.01,2.22-1.1,4.11-3.04,5.89-4.85,3.19-3.27,7.41-4.97,10.98-7.63,3.58-2.66,6.83-5.75,10.38-8.46,2.53-1.93,5.3-3.52,7.96-5.28,1.06-.7,2.01-1.66,3.16-2.15,9.47-4.01,17.25-10.9,26.46-15.38,13.79-6.71,27.5-13.59,41.18-20.51,6.85-3.47,13.94-6.23,21.11-8.97,7.13-2.73,14.07-6.01,21.37-8.34,5.47-1.74,10.85-3.77,16.38-5.3,4.9-1.36,9.46-3.68,14.7-4.19,4.37-.43,8.56-2.45,12.91-3.34,3.13-.64,6.3-.99,9.26-2.28,2.98-1.3,6.16-1.52,9.35-1.8,2.53-.22,5.21-.35,7.5-1.29,4.86-2,9.85-2.58,15.01-2.54,3.89,.03,7.54-1.04,11.2-2.27,2.38-.8,4.97-1.23,7.49-1.35,5.1-.25,10.22-.16,15.34-.24,3.2-.05,6.41-.26,9.4-1.53C479.17,.4,483.59,0,488.09,0c16.62,.02,33.24,.01,49.86,.01,3.87,0,7.64,.49,11.25,1.98,3,1.23,6.16,1.64,9.37,1.68,6.39,.09,12.78,.14,19.18,.2,3.23,.03,6.3,.72,9.36,1.77,2.39,.82,4.91,1.58,7.41,1.72,6.39,.35,12.74,.5,18.75,3.22,1.67,.75,3.76,.6,5.66,.82,1.9,.22,3.99-.07,5.69,.63,7.13,2.93,14.88,3.35,22.13,5.93,14.41,5.14,29.08,9.55,43.58,14.45,6.03,2.04,12.05,4.09,17.88,6.76,8.11,3.71,16.7,6.26,24.6,10.54,7.3,3.95,14.8,7.54,22.25,11.22,5.73,2.83,11.56,5.47,16.46,9.7,.48,.41,1.04,.77,1.61,1.04,11.63,5.44,21.7,13.36,32.47,20.17,2.72,1.72,5.36,3.45,7.67,5.68,2.78,2.67,5.91,4.78,9.21,6.8,3.23,1.98,5.85,4.91,8.92,7.19,3.06,2.28,6.57,3.99,9.48,6.43,3.91,3.28,7.45,7,11.1,10.57,4.11,4.02,8.08,8.17,13.38,10.75,1.68,.82,3.14,2.2,4.5,3.54,6.38,6.28,12.73,12.58,18.99,18.98,1.77,1.81,3.53,3.79,4.69,6.01,2.11,4.06,5.07,7.33,8.24,10.51,3.16,3.17,6.34,6.32,9.41,9.57,1.75,1.85,3.67,3.7,4.83,5.91,2.42,4.61,5.96,8.25,9.21,12.19,2.82,3.43,4.62,7.79,7.72,10.88,5.07,5.06,7.72,11.74,12.41,16.98,5.11,10.3,12.19,19.46,17.35,29.73,6.02,11.99,12.06,23.98,17.96,36.03,3.92,8.01,8.61,15.71,10.57,24.58,5.4,10.23,8.47,21.32,12.07,32.22,.6,1.81,1.53,3.6,1.71,5.46,.76,7.74,3.98,14.76,6.28,22.04,.97,3.08,1.73,6.13,1.85,9.34,.12,3.21,.5,6.37,1.8,9.35,1.3,2.97,2.06,6.09,1.96,9.31-.15,5.28,2.42,9.89,3.3,14.88,.88,5.01,.97,10.16,1.45,15.24,.06,.62,.32,1.24,.58,1.82,2.21,4.78,2.4,9.87,2.4,15.02,0,15.34,.04,30.69,.07,46.03,0,3.84,0,7.67,0,11.51h-.07ZM157.83,306.55l-.33-.09c-.88-.84-1.63-2.11-2.67-2.44-4.12-1.3-8.33-2.34-12.52-3.38-.49-.12-1.26,.2-1.67,.57-.77,.7-.79,1.9,.01,3.13,2.07,3.16,4.66,5.71,8.53,6.55,9.63,8.41,19.22,16.88,28.91,25.23,24.24,20.89,47.73,42.58,70.67,64.88,10.55,10.25,20.93,20.69,31,31.41,8.75,9.32,17.09,19.03,25.35,28.8,6.61,7.82,12.47,16.2,17.59,25.1,4.5,7.84,7.64,16.16,9.58,24.95,1.4,6.34,1.22,12.68-.16,19.03-2.19,10.12-6.27,19.42-11.71,28.19-5.06,8.17-10.76,15.88-16.87,23.28-20.42,24.71-42.46,47.85-67.14,68.35-24.6,20.43-49.46,40.55-74.16,60.85-3.49,2.87-7.29,5.16-11.36,7.05-1.13,.52-1.84,1.88-1.13,3.11,.51,.88,2.08,1.6,3.18,1.61,4.52,.03,8.81-1.32,13.09-2.66,21.94-6.86,43.93-13.53,66.12-19.55,28.99-7.86,58.12-15.12,88.08-18.36,5.72-.62,11.38-1.84,17.11-2.22,15.32-1.03,30.67-1.31,46.03-.87,8.37,.24,16.49,1.63,24.54,3.9,14.57,4.1,26.84,11.74,36.83,23.06,5.1,5.78,9.43,12.11,12.79,19.06,2.5,5.17,4.9,10.4,7.19,15.67,12.46,28.79,22.34,58.47,30.42,88.75,7.65,28.69,9.5,36.03,16.05,69.06,2.24,11.28,4.61,22.54,6.98,33.8,.3,1.43,1.28,2.71,2,2.49,1.14-.35,2.23-1.23,3.07-2.14,.84-.91,1.6-2.05,1.97-3.22,1.75-5.49,2.98-11.11,3.73-16.83,.59-4.44,1.11-8.9,2.03-13.27,6.22-29.38,13.12-58.61,21.8-87.38,7.57-25.09,15.94-49.89,26-74.11,3.2-7.7,6.81-15.12,11.38-22.11,14.67-22.41,35.6-34.26,62-36.74,6.99-.66,14.06-.93,21.08-.72,19.81,.6,39.67,.6,59.25,4.37,10.91,.66,21.48,3.37,32.03,5.84,15.54,3.65,30.93,7.92,46.35,12.04,24.05,6.44,48.08,12.99,72.12,19.45,1.2,.32,2.5,.34,3.76,.36,.62,.01,1.24-.3,1.85-.46-.15-.57-.19-1.21-.48-1.7-.96-1.64-1.82-3.4-3.07-4.79-3.85-4.32-8.56-7.67-13.09-11.21-13.11-10.23-26.31-20.34-39.31-30.7-16.01-12.76-31.61-26.01-46.45-40.13-17.18-16.34-33.35-33.58-47.68-52.5-5.79-7.65-11.41-15.43-16.21-23.75-3.83-6.64-7.15-13.5-9.47-20.9-3.37-10.76-3.48-21.24-.05-32.01,2.36-7.4,5.66-14.28,9.82-20.71,4.16-6.43,8.67-12.66,13.38-18.71,18.12-23.26,38.26-44.7,59.67-64.93,15.34-14.5,30.98-28.67,46.67-42.8,14.26-12.84,28.77-25.4,43.15-38.1,2.87-2.53,5.75-5.07,8.39-7.82,.77-.8,.9-2.34,1.02-3.57,.1-1.1-2.9-2.13-4.71-1.67-1.85,.46-3.73,.86-5.54,1.44-7.9,2.54-15.76,5.21-23.68,7.71-38.74,12.2-77.91,22.95-116.9,29.63-20.19,3.46-40.38,6.42-60.85,7.48-10.89,.57-21.74,.45-32.57-.7-19.9-2.11-36.72-10.34-50.07-25.39-5.11-5.76-9.43-12.09-13.26-18.77-4.46-7.78-8.24-15.88-11.66-24.15-7.31-17.73-13.63-35.81-19.34-54.12-8.96-28.69-16.01-57.87-22.73-87.14-3.29-14.32-6.58-28.64-9.87-42.95,1.24-3.28,.07-6.19-1.54-8.95-.74-1.26-1.91-1.67-2.83-1.16-.5,.28-.92,.92-1.11,1.49-.83,2.43-1.16,4.9-.28,7.4-3.78,18.12-6.92,36.35-10.87,54.44-6.48,29.65-13,56.12-23.69,88.71-6.37,19.4-13.67,38.46-22.08,57.09-3.43,7.59-7.29,14.89-12.19,21.64-13.14,18.09-31.36,27.81-52.96,31.26-23.55,3.77-47.19,2.23-70.64-1.13-11.99-1.72-23.97-3.65-35.91-5.79-10.06-1.8-20.03-3.96-29.96-6.25-23-5.31-45.58-12.17-68.17-18.99-7.32-2.21-14.42-5.16-21.98-6.58-3.01-3.99-7.16-4.31-11.63-3.62Z"/><path class="cls-2" d="M523.68,96.97c3.29,14.32,6.58,28.63,9.87,42.95,6.72,29.27,13.77,58.45,22.73,87.14,5.72,18.31,12.03,36.39,19.34,54.12,3.41,8.28,7.2,16.38,11.66,24.15,3.83,6.68,8.15,13,13.26,18.77,13.35,15.05,30.17,23.28,50.07,25.39,10.83,1.15,21.68,1.27,32.57,.7,20.47-1.07,40.67-4.02,60.85-7.48,38.99-6.69,78.16-17.43,116.9-29.63,7.92-2.49,15.77-5.17,23.68-7.71,1.81-.58,3.69-.98,5.54-1.44,1.81-.45,4.81,.57,4.71,1.67-.12,1.23-.25,2.78-1.02,3.57-2.64,2.75-5.52,5.29-8.39,7.82-14.38,12.7-28.89,25.26-43.15,38.1-15.69,14.12-31.33,28.3-46.67,42.8-21.41,20.23-41.55,41.67-59.67,64.93-4.71,6.05-9.22,12.28-13.38,18.71-4.16,6.44-7.46,13.32-9.82,20.71-3.43,10.76-3.32,21.25,.05,32.01,2.32,7.4,5.64,14.26,9.47,20.9,4.8,8.32,10.41,16.1,16.21,23.75,14.33,18.92,30.51,36.16,47.68,52.5,14.84,14.12,30.44,27.37,46.45,40.13,13,10.36,26.2,20.48,39.31,30.7,4.54,3.54,9.24,6.9,13.09,11.21,1.25,1.4,2.1,3.16,3.07,4.79,.29,.49,.32,1.13,.48,1.7-.62,.16-1.24,.47-1.85,.46-1.26-.02-2.56-.04-3.76-.36-24.05-6.46-48.07-13.01-72.12-19.45-15.42-4.13-30.81-8.4-46.35-12.04-10.55-2.48-21.12-5.19-32.03-5.84-19.58-3.77-39.44-3.77-59.25-4.37-7.01-.21-14.09,.06-21.08,.72-26.39,2.49-47.33,14.33-62,36.74-4.57,6.99-8.19,14.41-11.38,22.11-10.06,24.22-18.43,49.02-26,74.11-8.68,28.77-15.57,57.99-21.8,87.38-.93,4.37-1.45,8.83-2.03,13.27-.76,5.72-1.98,11.34-3.73,16.83-.37,1.17-1.13,2.31-1.97,3.22-.84,.91-1.93,1.79-3.07,2.14-.72,.22-1.7-1.06-2-2.49-2.37-11.26-4.74-22.51-6.98-33.8-6.56-33.03-8.4-40.37-16.05-69.06-8.08-30.28-17.96-59.96-30.42-88.75-2.28-5.27-4.68-10.5-7.19-15.67-3.36-6.94-7.69-13.28-12.79-19.06-9.99-11.32-22.26-18.95-36.83-23.06-8.06-2.27-16.17-3.66-24.54-3.9-15.36-.44-30.71-.16-46.03,.87-5.73,.38-11.39,1.61-17.11,2.22-29.96,3.24-59.09,10.49-88.08,18.36-22.18,6.02-44.18,12.69-66.12,19.55-4.28,1.34-8.57,2.69-13.09,2.66-1.1,0-2.67-.73-3.18-1.61-.71-1.23,0-2.59,1.13-3.11,4.08-1.89,7.87-4.18,11.36-7.05,24.71-20.3,49.57-40.41,74.16-60.85,24.68-20.5,46.72-43.64,67.14-68.35,6.12-7.4,11.81-15.11,16.87-23.28,5.43-8.77,9.51-18.07,11.71-28.19,1.38-6.35,1.56-12.69,.16-19.03-1.94-8.79-5.08-17.12-9.58-24.95-5.11-8.9-10.98-17.29-17.59-25.1-8.26-9.77-16.6-19.48-25.35-28.8-10.07-10.72-20.46-21.15-31-31.41-22.94-22.3-46.43-43.99-70.67-64.88-9.69-8.35-19.28-16.82-28.91-25.23,.86-2.32,2.29-3.78,4.99-3.76,1.11,.01,2.23-.43,3.34-.67,0,0,.33,.09,.33,.09,3.34,2.93,7.02,4.75,11.63,3.62,7.55,1.42,14.66,4.36,21.98,6.58,22.59,6.83,45.17,13.69,68.17,18.99,9.94,2.29,19.91,4.45,29.96,6.25,11.94,2.14,23.92,4.07,35.91,5.79,23.45,3.36,47.09,4.89,70.64,1.13,21.61-3.45,39.82-13.17,52.96-31.26,4.9-6.75,8.76-14.04,12.19-21.64,8.41-18.63,15.72-37.69,22.08-57.09,10.7-32.59,17.22-59.06,23.69-88.71,3.95-18.09,7.09-36.33,10.87-54.44,1.06-.5,1.98-.4,2.9,.08,.91,.47,1.9,.77,2.86,1.14Z"/></g></g></svg>