<?xml version="1.0" encoding="UTF-8"?><svg id="Layer_2" xmlns="http://www.w3.org/2000/svg" viewBox="0 0 1029.2 1031.57"><defs><style>.cls-1{fill:#05070a;}.cls-2{fill:#384856;}</style></defs><g id="Layer_1-2"><g><path class="cls-2" d="M1025.67,587.53c.15,13.54-2.65,26.7-5.62,39.77-16.92,74.7-48.76,142.47-95.91,202.8-66.4,84.97-150.86,144.49-253.54,177.75-27.51,8.91-49.51,13.52-76.42,17.66-25.33,3.9-50.78,5.76-76.38,6.03-9.59,.1-19.18-.27-28.73-1.29-3.18-.34-6.36-.61-9.55-.82-61.24-4.01-119.64-19.36-175.45-44.56-56.47-25.5-106.79-60.11-150.86-103.74-58.74-58.15-101.3-126.37-127.48-204.77-9.57-28.66-13.69-48.15-18.17-72.4C2.45,576.21-.12,548.26,0,520.06c.05-10.87,.18-21.74,.45-32.6,.28-10.87,.95-21.7,2.77-32.46,1.6-9.44,1.67-19.12,4.29-28.42,8.79-51.45,25.96-100.01,50.06-146.24C111.75,176.41,207.83,81.37,336.62,32.37c26.92-10.24,54.64-17.73,82.8-23.63,12.68-1.52,25.1-4.92,37.94-5.36,1.28-.04,2.56-.17,3.82-.36,26.71-4,53.56-3.14,80.4-2.35,5.1,.15,10.19,.81,15.28,1.31,3.18,.31,6.34,.83,9.52,1.12,51.96,4.69,101.76,17.85,149.82,37.97,48.72,20.39,93.27,47.67,133.41,81.93,76.85,65.6,130.08,146.86,159.96,243.38,5.69,18.39,10.74,39.37,14.25,59.6,1.09,6.27,1.3,12.7,1.92,19.06-1.38,8.73-.64,17.41,.85,26.03,.3,1.73,1.71,3.26,2.6,4.89v80.61c-1.45,2.05-2.81,4.17-3.13,6.72-1.02,8.06-1.95,16.14-.4,24.25Zm-345.77-255.15h.25c0,1.28,.04,2.56,0,3.84-.27,7.66-.55,15.32-.83,22.99-2.41,7.94-4.22,16.12-7.35,23.77-6.53,15.95-13.4,31.82-25.62,44.56-1.76,1.83-3.1,4.05-4.68,6.06-1.97,2.51-3.89,5.06-6,7.45-9.39,10.6-20.83,18.82-32.24,26.98-4.64,3.32-9.37,6.6-14.56,9.21-6.88,3.45-13.92,6.42-21.23,8.73-7.89,2.5-15.63,5.69-24.1,5.88-1.25,.03-2.57,.34-3.73,.82-5.47,2.26-11.22,2.38-16.98,2.4-8.95,.02-17.9-.03-26.85-.12-3.84-.04-7.65-.39-11.33-1.66-1.8-.62-3.67-1.29-5.55-1.42-9.69-.68-18.59-4.24-27.7-7.17-16.64-5.33-31.49-13.94-45.52-24.07-4.13-2.98-8.07-6.25-12.14-9.33-6.13-4.62-11.5-10.14-16.16-16.28-1.54-2.03-2.79-4.31-4.45-6.23-9.28-10.72-16.25-22.85-22.42-35.54-5.36-11.02-7.78-22.92-10.99-34.59-1.72-6.26-1.4-12.69-1.47-19.06-.1-9.59,.08-19.18,.2-28.77,.05-3.84,.47-7.64,1.74-11.32,.62-1.81,1.31-3.67,1.45-5.54,.74-9.7,4.38-18.57,7.36-27.67,4.61-14.07,11.28-27.19,18.96-39.68,6.66-10.85,13.32-21.82,21.98-31.33,1.73-1.89,2.8-4.25,3.42-6.76,.14-.59,.33-1.46,.04-1.82-.91-1.1-2.16-1.26-3.47-.9-7.98,2.2-15.76,5.08-23.91,6.81-5.58,1.18-10.98,3.37-16.31,5.49-24.54,9.75-24.47,9.92-45.42,20.36-10.89,5.43-21.44,11.4-31.45,18.28-15.77,10.84-32.5,20.35-46.51,33.62-7.86,4.53-13.99,11.1-20.39,17.34-6.87,6.69-13.66,13.46-20.38,20.31-8.5,8.66-17.21,17.16-23.67,27.57-10.13,11.57-22.51,33.33-28.95,45.03-7.71,14.01-14.15,28.61-18.68,44.01-2.34,7.96-4.96,15.84-7.66,23.68-1.26,3.66-2.05,7.36-2.47,11.19-.28,2.53-.65,5.1-1.46,7.5-1.45,4.29-2.11,8.67-2.37,13.16-.15,2.55-.04,5.26-.89,7.59-2.92,8.03-2.79,16.35-2.83,24.64-.08,18.54,0,37.08,.09,55.62,.03,5.75,.18,11.5,2.27,17.02,.66,1.76,1.1,3.75,1.04,5.62-.24,8.47,2.65,16.37,4.46,24.42,2.1,9.31,4.18,18.69,7.55,27.67,2.02,5.38,4.58,10.56,6.4,16,6.98,20.79,18.84,39.05,29.77,57.79,.96,1.64,2.31,3.05,3.48,4.57,1.94,2.53,4.03,4.97,5.78,7.63,4.93,7.47,10.86,14.19,16.24,21.31,3.83,5.06,8.7,9.34,13.21,13.88,5.86,5.9,11.79,11.72,17.73,17.52,2.29,2.23,4.53,4.56,7.08,6.45,10.78,7.97,21.14,16.5,32.09,24.22,16.12,11.36,42.86,28.13,60.6,36.62,8.64,4.14,17.17,8.53,25.77,12.76,3.44,1.69,6.85,3.5,10.43,4.85,13.72,5.19,27.28,10.83,41.31,15.2,13.47,4.2,36.37,10.7,57.64,13.32,1.26,.16,2.59,.28,3.75,.75,6.07,2.5,12.48,2.53,18.87,2.75,4.46,.16,8.98-.01,13.29,1.44,4.93,1.66,10.01,1.92,15.14,1.93,8.95,.01,17.9,.08,26.85,.07,6.39,0,12.74-.11,18.98-2.07,2.98-.94,6.3-.94,9.48-1.12,5.1-.28,10.23-.24,15.33-.57,3.17-.2,6.41-.48,9.44-1.35,4.33-1.25,8.72-1.83,13.14-2.51,5.02-.77,9.89-2.71,14.92-3.22,5.81-.59,11.26-2.19,16.73-3.92,3.65-1.15,7.25-2.59,10.98-3.36,18.88-3.89,36.43-11.66,54.2-18.7,8.88-3.52,17.42-7.92,26.35-11.41,8.96-3.5,16.85-9.07,25.2-13.75,1.12-.62,2.22-1.27,3.37-1.83,13.26-6.42,25.86-13.93,37.72-22.68,7.94-4.25,13.93-11.22,21.76-15.63,4.71-4.32,9.43-8.63,14.11-12.98,2.34-2.18,4.56-4.49,6.92-6.63,3.78-3.43,7.84-6.58,11.41-10.21,4.03-4.09,7.39-8.84,11.5-12.83,9.22-8.97,16.6-19.43,24.09-29.73,10.14-13.95,19.24-28.62,26.52-44.33,2.42-5.22,5.05-10.33,7.56-15.51,1.11-2.3,2.33-4.57,3.2-6.97,5-13.8,10.27-27.53,13.71-41.81,1.79-7.43,4.35-14.7,5.27-22.34,1.99-4.82,2.28-9.92,2.51-15.05,.24-5.1-.19-10.32,1.48-15.22,1.9-5.58,2.02-11.29,2.07-17.05,.05-7.03,.1-14.07,.05-21.1-.06-8.3,.4-16.66-2.62-24.64-.34-4.46-.75-8.91-.99-13.38-.28-5.12-.63-10.17-2.41-15.08-.86-2.37-.88-5.04-1.6-7.47-2.35-7.95-3.94-16.08-6.29-24.05-6.17-20.91-14.32-40.97-24.52-60.21-2.1-3.95-4.12-7.94-6.24-11.88-1.21-2.25-2.44-4.49-3.8-6.65-11.47-18.24-20.4-30.3-35.15-47.75-1.65-1.95-3.05-4.1-4.62-6.1-1.97-2.51-3.79-5.19-6.06-7.4-10.49-10.25-19.85-21.73-32.3-29.88-2.11-1.38-3.92-3.28-5.71-5.11-5.85-5.98-12.67-10.72-19.56-15.35-13.77-9.26-27.3-18.92-42.3-26.21-2.86-1.39-5.52-3.2-8.22-4.9-4.34-2.73-8.93-4.92-13.72-6.76-4.17-1.6-8.34-3.25-12.34-5.22-6.9-3.39-14-6.22-21.27-8.64-12.11-4.04-24.18-8.17-36.31-12.14-3.03-.99-6.2-1.56-9.32-2.2-.49-.1-1.2,.29-1.65,.65-.96,.76-1.27,1.97-.76,3.31,.45,1.19,1.07,2.32,1.74,3.41,5.65,9.26,11.44,18.44,16.96,27.78,6.83,11.56,13.12,23.47,17.76,36.06,5.29,14.35,10.68,28.73,13.38,43.9,2.01,4.82,2.37,9.92,2.42,15.05,.05,5.11,.01,10.23,.01,15.34Z"/><path class="cls-1" d="M679.91,332.38c0-5.11,.04-10.23-.01-15.34-.06-5.13-.41-10.23-2.42-15.05-2.7-15.17-8.08-29.55-13.38-43.9-4.64-12.59-10.93-24.5-17.76-36.06-5.52-9.34-11.31-18.52-16.96-27.78-.66-1.09-1.29-2.23-1.74-3.41-.51-1.35-.2-2.55,.76-3.31,.45-.36,1.16-.75,1.65-.65,3.13,.65,6.3,1.21,9.32,2.2,12.13,3.97,24.2,8.11,36.31,12.14,7.28,2.43,14.38,5.25,21.27,8.64,4,1.97,8.17,3.62,12.34,5.22,4.79,1.83,9.38,4.02,13.72,6.76,2.7,1.7,5.36,3.51,8.22,4.9,15,7.29,28.52,16.96,42.3,26.21,6.89,4.63,13.71,9.37,19.56,15.35,1.78,1.82,3.59,3.72,5.71,5.11,12.46,8.15,21.81,19.63,32.3,29.88,2.27,2.21,4.08,4.89,6.06,7.4,1.58,2.01,2.98,4.16,4.62,6.1,14.76,17.45,23.68,29.51,35.15,47.75,1.36,2.16,2.6,4.4,3.8,6.65,2.11,3.94,4.14,7.93,6.24,11.88,10.2,19.25,18.36,39.3,24.52,60.21,2.35,7.96,3.93,16.1,6.29,24.05,.72,2.44,.74,5.1,1.6,7.47,1.78,4.9,2.13,9.96,2.41,15.08,.24,4.46,.65,8.92,.99,13.38,3.02,7.99,2.56,16.35,2.62,24.64,.05,7.03,0,14.07-.05,21.1-.04,5.76-.17,11.47-2.07,17.05-1.67,4.9-1.24,10.12-1.48,15.22-.24,5.13-.53,10.22-2.51,15.05-.92,7.64-3.48,14.9-5.27,22.34-3.43,14.29-8.71,28.02-13.71,41.81-.87,2.39-2.08,4.67-3.2,6.97-2.51,5.18-5.14,10.29-7.56,15.51-7.28,15.71-16.39,30.38-26.52,44.33-7.49,10.3-14.87,20.77-24.09,29.73-4.11,3.99-7.47,8.75-11.5,12.83-3.58,3.63-7.63,6.78-11.41,10.21-2.37,2.15-4.58,4.46-6.92,6.63-4.68,4.35-9.4,8.66-14.11,12.98-7.82,4.41-13.82,11.38-21.76,15.63-11.86,8.75-24.46,16.26-37.72,22.68-1.15,.56-2.26,1.2-3.37,1.83-8.35,4.68-16.24,10.25-25.2,13.75-8.93,3.49-17.47,7.89-26.35,11.41-17.77,7.05-35.32,14.81-54.2,18.7-3.73,.77-7.33,2.2-10.98,3.36-5.48,1.73-10.93,3.33-16.73,3.92-5.03,.51-9.9,2.45-14.92,3.22-4.42,.68-8.81,1.26-13.14,2.51-3.03,.87-6.27,1.15-9.44,1.35-5.1,.33-10.22,.28-15.33,.57-3.18,.18-6.49,.18-9.48,1.12-6.24,1.96-12.59,2.06-18.98,2.07-8.95,.01-17.9-.06-26.85-.07-5.13,0-10.21-.27-15.14-1.93-4.31-1.45-8.83-1.28-13.29-1.44-6.39-.23-12.8-.25-18.87-2.75-1.16-.48-2.48-.6-3.75-.75-21.27-2.62-44.17-9.13-57.64-13.32-14.03-4.37-27.59-10.01-41.31-15.2-3.58-1.35-6.99-3.16-10.43-4.85-8.6-4.23-17.12-8.62-25.77-12.76-17.74-8.49-44.48-25.27-60.6-36.62-10.94-7.71-21.31-16.25-32.09-24.22-2.55-1.89-4.8-4.22-7.08-6.45-5.95-5.81-11.88-11.63-17.73-17.52-4.5-4.53-9.38-8.82-13.21-13.88-5.38-7.12-11.31-13.84-16.24-21.31-1.75-2.66-3.84-5.09-5.78-7.63-1.16-1.52-2.52-2.93-3.48-4.57-10.93-18.74-22.79-36.99-29.77-57.79-1.82-5.44-4.39-10.62-6.4-16-3.37-8.98-5.45-18.35-7.55-27.67-1.81-8.05-4.71-15.95-4.46-24.42,.05-1.87-.38-3.86-1.04-5.62-2.08-5.52-2.24-11.27-2.27-17.02-.09-18.54-.17-37.08-.09-55.62,.04-8.29-.09-16.61,2.83-24.64,.85-2.33,.74-5.04,.89-7.59,.26-4.49,.92-8.86,2.37-13.16,.81-2.39,1.19-4.97,1.46-7.5,.42-3.83,1.21-7.53,2.47-11.19,2.7-7.85,5.32-15.73,7.66-23.68,4.53-15.4,10.97-30,18.68-44.01,6.44-11.7,18.82-33.46,28.95-45.03,6.47-10.41,15.18-18.91,23.67-27.57,6.71-6.85,13.5-13.62,20.38-20.31,6.4-6.23,12.54-12.81,20.39-17.34,14.01-13.27,30.75-22.78,46.51-33.62,10-6.88,20.56-12.85,31.45-18.28,20.95-10.44,20.88-10.61,45.42-20.36,5.33-2.12,10.73-4.3,16.31-5.49,8.15-1.73,15.92-4.6,23.91-6.81,1.31-.36,2.55-.2,3.47,.9,.3,.35,.11,1.23-.04,1.82-.62,2.51-1.7,4.87-3.42,6.76-8.67,9.51-15.32,20.48-21.98,31.33-7.68,12.5-14.34,25.61-18.96,39.68-2.98,9.1-6.62,17.97-7.36,27.67-.14,1.88-.83,3.74-1.45,5.54-1.27,3.68-1.69,7.48-1.74,11.32-.12,9.59-.31,19.18-.2,28.77,.07,6.37-.25,12.8,1.47,19.06,3.21,11.67,5.63,23.57,10.99,34.59,6.17,12.69,13.15,24.82,22.42,35.54,1.66,1.92,2.91,4.2,4.45,6.23,4.66,6.14,10.03,11.65,16.16,16.28,4.08,3.08,8.02,6.34,12.14,9.33,14.03,10.13,28.88,18.74,45.52,24.07,9.12,2.92,18.01,6.49,27.7,7.17,1.88,.13,3.75,.8,5.55,1.42,3.69,1.27,7.49,1.62,11.33,1.66,8.95,.08,17.9,.14,26.85,.12,5.76-.01,11.52-.13,16.98-2.4,1.16-.48,2.48-.79,3.73-.82,8.47-.2,16.2-3.39,24.1-5.88,7.31-2.31,14.35-5.28,21.23-8.73,5.19-2.6,9.92-5.89,14.56-9.21,11.41-8.17,22.85-16.38,32.24-26.98,2.11-2.38,4.03-4.94,6-7.45,1.58-2.01,2.93-4.23,4.68-6.06,12.23-12.74,19.09-28.61,25.62-44.56,3.13-7.64,4.94-15.83,7.35-23.77,.28-7.66,.57-15.32,.83-22.99,.04-1.28,0-2.56,0-3.84h-.25Z"/></g></g></svg>