<svg xmlns="http://www.w3.org/2000/svg" viewBox="0 0 1031.87 1029.24"><path fill="#b69b33" d="M556 1028.82c-2.54-.14-5.1-.51-7.63-.39-21.71 1.07-43.41 1.07-65.11.04-2.53-.12-5.08.26-7.62.41-10.74-1.67-21.46-3.31-32.32-4.24-8.25-.71-16.44-2.37-24.58-4.02-38.94-7.89-76.72-19.43-113.03-35.74-40.47-18.18-78.02-41.1-112.55-68.89-23.96-19.28-46.12-40.44-66.29-63.75-33.74-38.98-61.21-81.85-82.26-128.88-12.83-28.67-22.79-58.27-30.2-88.8-4.23-17.42-6.86-35.11-10-52.71-.56-3.14-.66-6.36-.91-9.55-.36-4.46-.4-8.97-1.04-13.39C-.98 535.34.03 511.68.55 488.02c2.19-21.62 3.67-43.34 7.77-64.71 6.4-33.33 15.6-65.86 28.25-97.43 20.15-50.28 47.42-96.36 82.08-137.9 36.73-44.02 79.26-81.56 128.26-111.6 37.79-23.17 77.7-41.58 120.17-54.35 20.2-6.07 40.58-11.26 61.44-14.68 9.47-1.55 18.99-2.56 28.45-3.97C489.45-1.44 522.03.04 554.63.94c3.82.1 7.63.73 11.43 1.21 2.54.32 5.04.97 7.58 1.19 30.7 2.59 60.55 9.4 90 18.16 31.33 9.31 61.42 21.72 90.34 36.94 36.37 19.14 69.97 42.26 101.02 69.24 40.92 35.56 75.11 76.7 103.16 122.97 26.69 44.03 46.32 91.05 58.76 141.07 4.17 16.77 7.12 33.75 10.2 50.72.57 3.14.74 6.35 1.05 9.53.43 4.46.48 8.98 1.28 13.36 1.85 10.13 2.28 20.34 2.36 30.57.12 14.71.04 29.42-.12 44.13-.08 7.67-.45 15.34-1.92 22.92-.49 2.5-.74 5.07-.89 7.62-1.3 21.14-5.74 41.76-10.35 62.34-5.46 24.37-13.19 48.07-22.35 71.27-18.69 47.33-44.19 90.78-75.89 130.54-21.18 26.57-44.8 50.8-70.83 72.74-32.94 27.77-68.72 51.09-107.35 70.05-35.12 17.24-71.88 30.1-109.96 38.92-17.4 4.03-34.97 7.6-52.83 9.21-4.99-1.08-10-.62-14.92.26-1.73.31-3.27 1.68-4.89 2.56-1.19-.04-2.36.08-3.51.35Zm-94.35-543.38c5.99 24.18 12.73 48.17 18.84 72.32 5.95 23.53 12.27 46.97 18.38 70.45.8 3.08 1.59 6.19 1.91 9.34.13 1.27-1.44 2.33-2.63 2.07-9.47-2.1-17.72-7.11-26.23-11.39-34.57-17.39-65.56-39.64-92.12-67.96-21.64-23.07-38.9-49.06-52.21-77.66-10.55-22.67-18.01-46.44-23.89-70.71-1.21-9.51-4.2-18.71-4.8-28.33-.8-12.78-1.21-25.54-.66-38.35.42-9.61 1.7-19.02 3.9-28.43 8.96-38.31 29.44-69.07 60.4-92.95 13.72-10.58 28.67-19.27 44.77-25.73 14.82-5.95 29.83-11.44 45.66-14.21 11.04-3.49 22.69-3.67 33.93-6.13 3.09-.68 6.36-.67 9.55-.74 8.31-.19 16.63-.1 24.93-.4 16.11-.57 31.88 2.27 47.59 5.01 15.72 2.74 31.1 7.16 46.19 12.51 20.53 7.28 40.31 16.19 59.54 26.38 5.07 2.69 10.22 5.25 15.36 7.81.42.21 1.18.11 1.61-.14 1.25-.75 1.45-1.91.84-3.34-2.8-6.53-6.77-12.3-11.45-17.61-6.8-7.71-14.39-14.55-22.72-20.55-29.17-21.02-60.33-38.44-93.55-52.22-23.07-9.56-46.73-17.23-70.95-23.24-13.02-3.23-26.02-6.52-39.45-7.62-3.18-.26-6.31-.97-9.47-1.43-3.16-.46-6.32-1.08-9.49-1.25-19.17-1.05-38.35-1.02-57.52.07-1.28.07-2.58.1-3.81.38-11.86 2.63-24.17 2.61-35.87 6.11-26.59 4.82-51.82 13.8-76.11 25.44-20.82 9.97-40.27 22.14-58.35 36.61-18.57 14.87-35.18 31.53-49.79 50.31-16.24 20.88-28.83 43.81-38.31 68.36-9.24 23.93-15.65 48.65-16.74 74.49-.11 2.55-.36 5.11-.73 7.64-1.9 12.74-1.84 25.47-.14 38.22.59 4.43 1.05 8.91 1.12 13.37.21 13.52 3.58 26.58 5.52 39.85 8.61 38.79 20.75 76.41 36.91 112.74 23.84 53.6 55.6 102.12 94.27 146.1 24.11 27.42 50.58 52.51 79.13 75.29 34.04 27.16 69.82 51.78 108 72.83 6.16 3.39 12.23 6.96 18.5 10.12 25.78 12.98 52.81 22.66 80.66 30.1 6.17 1.65 12.39 3.28 18.7 4.16 12.64 1.78 25.09 4.98 37.96 5.15 3.17.04 6.33.86 9.5 1.24s6.35.89 9.53.95c18.52.32 37.08 1.48 55.49-1.88 2.51-.46 5.09-.62 7.64-.69 11.6-.3 22.65-3.86 34-5.6 41.43-10.45 79.22-28.53 113.58-53.92 11.85-8.76 22.69-18.68 33.82-28.29 16.05-13.86 29.57-30.08 43.8-45.63 3.89-4.25 7.06-9.08 9.45-14.38 1.97-4.36 1.84-8.7-.34-12.93-2.67-5.18-6.48-9.43-10.79-13.34-25.55-23.23-51.04-46.52-76.55-69.8-.47-.43-.92-.89-1.41-1.3-19.98-16.98-38.75-35.31-58.31-52.77-23.38-20.86-46.21-42.32-69.28-63.53-.94-.87-1.86-1.76-2.82-2.6-23.04-20.28-45.4-41.31-68.12-61.94-20.35-18.49-40.54-37.16-60.8-55.75-.94-.86-1.89-1.72-2.84-2.58-19.02-17.1-38.05-34.18-57.04-51.31-18.51-16.71-36.98-33.47-55.47-50.2-.95-.86-1.96-1.65-3-2.38-.51-.36-1.2-.45-1.75-.76-1.23-.7-4.47 1.07-4.44 2.52.04 1.9-.19 3.89.28 5.69 1.95 7.41 4.25 14.74 6.17 22.16 10.89 42.05 21.71 84.11 32.55 126.17Z"/><path fill="#0e0d0e" d="M461.65 485.44c-10.84-42.06-21.66-84.12-32.55-126.17-1.92-7.42-4.23-14.74-6.17-22.16-.47-1.8-.24-3.79-.28-5.69-.03-1.45 3.21-3.22 4.44-2.52.55.31 1.24.4 1.75.76 1.04.73 2.06 1.52 3 2.38 18.5 16.73 36.96 33.49 55.47 50.2 18.99 17.13 38.03 34.21 57.04 51.31.95.86 1.9 1.71 2.84 2.58 20.26 18.59 40.44 37.26 60.8 55.75 22.72 20.64 45.08 41.67 68.12 61.94.96.84 1.88 1.74 2.82 2.6 23.07 21.2 45.91 42.67 69.28 63.53 19.56 17.46 38.33 35.79 58.31 52.77.49.41.94.87 1.41 1.3 25.51 23.27 51 46.57 76.55 69.8 4.3 3.91 8.12 8.16 10.79 13.34 2.18 4.23 2.31 8.57.34 12.93-2.39 5.29-5.56 10.12-9.45 14.38-14.24 15.55-27.75 31.77-43.8 45.63-11.13 9.61-21.97 19.53-33.82 28.29-34.36 25.38-72.15 43.47-113.58 53.92-11.35 1.74-22.41 5.3-34 5.6-2.55.07-5.13.23-7.64.69-18.41 3.36-36.96 2.2-55.49 1.88-3.18-.06-6.36-.57-9.53-.95-3.17-.38-6.33-1.2-9.5-1.24-12.87-.17-25.32-3.37-37.96-5.15-6.3-.89-12.53-2.51-18.7-4.16-27.85-7.45-54.88-17.13-80.66-30.1-6.27-3.16-12.34-6.73-18.5-10.12-38.17-21.05-73.96-45.67-108-72.83-28.55-22.78-55.02-47.87-79.13-75.29-38.66-43.97-70.43-92.49-94.27-146.1-16.16-36.33-28.3-73.95-36.91-112.74-1.93-13.27-5.3-26.33-5.52-39.85-.07-4.46-.53-8.94-1.12-13.37-1.69-12.76-1.75-25.49.14-38.22.38-2.53.63-5.08.73-7.64 1.09-25.84 7.5-50.57 16.74-74.49 9.48-24.55 22.07-47.48 38.31-68.36 14.61-18.78 31.22-35.44 49.79-50.31 18.07-14.47 37.53-26.64 58.35-36.61 24.29-11.63 49.52-20.61 76.11-25.44 11.71-3.5 24.01-3.49 35.87-6.11 1.24-.27 2.54-.3 3.81-.38 19.17-1.09 38.35-1.12 57.52-.07 3.18.17 6.33.8 9.49 1.25 3.16.46 6.3 1.17 9.47 1.43 13.44 1.1 26.43 4.39 39.45 7.62 24.23 6.01 47.89 13.68 70.95 23.24 33.22 13.77 64.39 31.2 93.55 52.22 8.33 6 15.93 12.84 22.72 20.55 4.68 5.3 8.65 11.07 11.45 17.61.61 1.42.41 2.59-.84 3.34-.42.25-1.19.35-1.61.14-5.14-2.56-10.28-5.12-15.36-7.81-19.23-10.19-39.01-19.1-59.54-26.38-15.09-5.35-30.46-9.77-46.19-12.51-15.71-2.74-31.48-5.58-47.59-5.01-8.31.29-16.62.21-24.93.4-3.19.07-6.46.07-9.55.74-11.24 2.45-22.89 2.63-33.93 6.13-15.83 2.77-30.84 8.26-45.66 14.21-16.1 6.46-31.06 15.15-44.77 25.73-30.95 23.88-51.44 54.63-60.4 92.95-2.2 9.41-3.48 18.82-3.9 28.43-.56 12.8-.15 25.57.66 38.35.61 9.62 3.59 18.82 4.8 28.33 5.88 24.27 13.34 48.05 23.89 70.71 13.31 28.6 30.56 54.59 52.21 77.66 26.57 28.32 57.55 50.57 92.12 67.96 8.51 4.28 16.76 9.3 26.23 11.39 1.19.26 2.76-.8 2.63-2.07-.32-3.15-1.11-6.26-1.91-9.34-6.11-23.49-12.43-46.93-18.38-70.45-6.11-24.15-12.85-48.14-18.84-72.32Zm113.66 95.84c-1.41.1-2.43.91-2.41 2.43.08 8.31 1.75 16.45 3.89 24.38 3.65 13.51 7.84 26.88 10.88 40.57 1.14 5.12 4.63 9.09 9.3 11.63 2.78 1.51 5.73 2.92 8.78 3.7 24.03 6.18 48.04 12.48 72.23 18.02.56.13 1.24-.04 1.8-.26.52-.2 1.16-.54 1.38-.99.25-.53.34-1.37.09-1.86-.84-1.68-1.62-3.49-2.86-4.86-6.83-7.56-13.66-15.15-20.74-22.48-24.4-25.27-51.2-47.83-78.77-69.51-1.07-.84-2.34-1.01-3.56-.78Z"/><path fill="#af9631" d="M575.31 581.27c1.23-.23 2.49-.07 3.56.78 27.57 21.68 54.37 44.24 78.77 69.51 7.08 7.33 13.9 14.91 20.74 22.48 1.24 1.37 2.02 3.18 2.86 4.86.25.5.16 1.34-.09 1.86-.22.46-.86.8-1.38.99-.56.21-1.24.38-1.8.26-24.19-5.54-48.2-11.84-72.23-18.02-3.05-.78-5.99-2.19-8.78-3.7-4.67-2.54-8.16-6.52-9.3-11.63-3.05-13.69-7.23-27.05-10.88-40.57-2.14-7.94-3.81-16.07-3.89-24.38-.01-1.52 1-2.33 2.41-2.43Z"/></svg>