<svg xmlns="http://www.w3.org/2000/svg" id="Layer_2" viewBox="0 0 1032.1 1035.72"><defs><style>.cls-2{fill:#0e0d0e}</style></defs><g id="Layer_1-2"><path fill="#ce559f" d="M475.41 1035.72c-1.25-1.49-2.73-2.81-4.69-3-12.09-1.17-23.84-4.69-36.01-5.3-18.75-3.88-37.68-7.07-56.09-12.38-19.02-5.48-37.79-11.78-56.19-19.19-33.34-13.43-64.86-30.3-94.66-50.29-14.32-9.61-28.15-19.93-41.45-31.01-13.78-11.49-26.84-23.7-39.48-36.39-29.5-29.62-54.26-62.86-75.84-98.58-24.66-40.81-41.89-84.7-54.74-130.44-3.67-13.06-6.77-30.68-9.62-46.9-1.99-11.36-3.53-22.72-4.1-34.24-.13-2.54-.52-5.1-1.04-7.59C.33 554.73.05 548.98.03 543.23c-.07-15.99-.04-31.98.04-47.97.03-5.76.46-11.49 1.59-17.17.62-3.12.94-6.33 1.13-9.51.6-10.22 1.23-20.43 3.86-30.39 1.48-13.37 4.56-26.41 7.65-39.48 5.59-23.68 13.01-46.76 21.94-69.38 19.17-48.54 45.27-93.1 77.72-133.87 15.53-19.51 32.24-38.08 50.62-55.02 28.77-26.53 59.8-50.12 93.59-69.86 24.3-14.2 49.54-26.56 75.93-36.53 22.75-8.59 45.91-15.75 69.61-21.09 11.2-2.52 22.36-5.36 33.89-6.17 2.55-.18 5.16-.32 7.6-1 8.11-2.24 16.43-2.39 24.72-2.81 7.66-.39 15.3-.85 22.93-1.81 12.08-1.51 24.31-1.51 36.38-.2 9.55 1.03 19.1 1.63 28.67 2.16 7.66.42 15.35.55 22.82 2.66 1.83.52 3.78.64 5.68.9 4.43.59 8.93.87 13.29 1.78 11.87 2.48 23.84 4.54 35.58 7.61 14.21 3.72 28.23 8.05 42.21 12.57 33.61 10.89 65.35 25.9 95.84 43.5 27.73 16 53.88 34.34 78.25 55.22 10.69 9.17 21.12 18.57 31.15 28.45 18.74 18.44 35.54 38.54 51.41 59.44 18.23 24.01 33.94 49.66 47.33 76.59 17.4 35 31 71.48 39.41 109.8 1.65 7.51 2.82 15.07 4.3 22.58 1.49 7.55 2.88 15.06 3.28 22.75 5.03 28.57 3.59 57.36 2.89 86.12-.22 8.94-.48 17.9-2.09 26.75-.57 3.13-.53 6.37-.7 9.56-.52 10.22-.81 20.46-3.45 30.44-1.1 16.68-5.51 32.76-9.38 48.89-3.73 15.52-8.61 30.75-14.07 45.78-12.06 33.17-27.42 64.71-45.98 94.72-12.47 20.15-26.31 39.31-41.29 57.66-2.83 3.47-5.83 6.8-8.82 10.12-14.13 15.7-28.95 30.72-44.51 45-26.01 23.88-54.38 44.54-84.93 62.21-11.62 6.72-23.31 13.3-35.44 19.09-34.14 16.28-69.43 29.23-106.4 37.48-9.11 3.13-18.87 3.32-28.06 6.14-1.21.37-2.51.57-3.78.61-11.57.34-22.67 3.81-34.1 5.13-1.96.23-3.44 1.52-4.67 3.04H475.4Zm445.01-523.8c.03-19.47.12-36.11-2.91-52.57-1.05-16.02-4.37-31.64-8.25-47.15-12.47-49.91-35.49-94.32-69.38-133.06-.42-.48-.93-.87-1.4-1.29-1.08-.95-2.23-1.09-3.54-.82-1.34.28-1.94 1.04-2.07 2.63-.34 3.86-.22 7.7.7 11.44 1.52 6.2 3.26 12.35 4.95 18.51 1.86 6.78 3.77 13.54 5.67 20.31 4.15 14.8 6.99 29.86 9.18 45.05.73 5.06 1.47 10.13 1.84 15.22.83 11.49 1.11 23 .88 34.52-.27 13.44-1.38 26.75-4.03 40.01-4.03 20.24-10.6 39.52-20.45 57.59-12.36 22.68-28.47 42.4-48.16 59.21-10.23 8.73-21.12 16.58-31.88 24.61-30.76 22.95-61.26 46.22-90.18 71.5-25.09 21.93-48.72 45.26-69.88 71.05-33.22 40.48-58.73 85.16-74.13 135.39-.93 3.05-2.1 6.04-3.38 8.95-.41.94-1.55 1.56-2.36 2.33-.43-.48-.98-.89-1.26-1.44-2.02-4.01-3.28-8.29-4.74-12.52-14.95-43.22-36-83.21-63.21-120.01-25.63-34.66-55.69-65.08-88.43-92.92-22.43-19.07-46.07-36.58-70.42-53.12-6.35-4.31-12.71-8.61-18.86-13.2-18.51-13.82-35.58-29.17-50.01-47.35-28.27-35.61-44.37-75.87-46.95-121.38-.22-3.83-.4-7.67-.49-11.5-.6-26.97 1.66-53.64 8.15-79.9 1.08-4.36 2.24-8.65 3.85-12.83 1.84-4.77 3.41-9.65 5.41-14.35 2.78-6.54 4.06-13.46 5.51-20.32.93-4.39.84-8.94-.41-13.31-.51-1.79-1.52-3.47-2.47-5.1-.7-1.19-2.1-1.49-3.3-.52-9.56 7.72-16.58 17.67-23.66 27.52-14.67 20.42-25.3 42.98-33.52 66.6-10.52 30.28-17.63 61.39-20.36 93.42-.33 3.82-.88 7.62-1.22 11.44-.57 6.36-1.34 12.73-1.54 19.11-.51 16.63-1.06 33.31.47 49.87 1.53 16.53 2.99 33.07 5.82 49.5 4.46 25.92 11.33 52.34 19.95 75.89 11.54 31.55 28.04 60.11 49.9 85.72 17.95 21.03 38.06 39.7 59.72 56.72 43.02 33.81 90.12 60.59 140.99 80.72 23.81 9.42 48.16 17.08 73.36 21.89 8.57 2.91 17.64 2.91 26.45 4.44 17.13 2.98 34.4 2.37 51.66 1.35 2.54-.15 5.05-.75 7.57-1.18 14.49-2.46 28.85-5.55 43.14-9.02 38.61-9.38 76.14-21.82 112.2-38.58 38.51-17.9 74.02-40.35 105.57-68.97 28.23-25.6 51.61-54.96 70.04-88.26 13.67-24.69 24.32-50.63 32.01-77.85 7.14-25.3 12.33-50.91 14.7-77.08.17-1.91.23-3.84.56-5.73 2.52-14.57 2.56-29.29 2.61-41.17Zm-417.96 41.1c1.25-.08 2.29-.78 2.65-2.2 4.39-17.34 9.85-34.33 16.21-51.05 21.63-56.9 53.56-107.17 96.42-150.47 17.11-17.28 35.3-33.29 54.83-47.78 2.55-1.89 4.87-4.08 7.24-6.2.4-.36.71-1.04.71-1.57-.02-1.55-.83-2.47-2.18-2.54-3.18-.16-6.37-.38-9.55-.36-14.07.08-28.02-.95-41.96-3.11-15.36-2.38-29.71-7.23-43.24-14.7-17.74-9.78-31.74-23.45-42.25-40.74-6.66-10.96-11.77-22.65-16.12-34.67-3.91-10.8-7.63-21.67-11.55-32.46-2.61-7.2-5.39-14.33-8.22-21.45-.44-1.12-1.36-2.17-2.31-2.95-1.17-.97-2.66-.96-3.18.04-3.52 6.81-5.82 14.13-8.62 21.23-5.86 14.88-12.65 29.31-20.42 43.26-9.35 16.8-20.31 32.44-33.94 46.15-25.27 25.41-55.68 40-91.24 44.11-10.14 1.17-20.25 2.41-30.45 2.88-.6.03-1.58.31-1.71.7-.45 1.33-.13 2.66.88 3.34 4.24 2.85 8.54 5.6 12.82 8.37 18.26 11.82 35.66 24.76 51.83 39.33 35.02 31.57 63.04 68.52 84.69 110.33 14.72 28.43 26.28 58.12 35.21 88.86.34 1.18 1.03 2.31 1.77 3.32.25.34 1.12.24 1.7.34Z"/><path d="M920.42 511.92c-.05 11.88-.09 26.59-2.61 41.17-.33 1.89-.39 3.82-.56 5.73-2.37 26.18-7.56 51.78-14.7 77.08-7.69 27.22-18.34 53.16-32.01 77.85-18.43 33.29-41.81 62.66-70.04 88.26-31.56 28.62-67.06 51.07-105.57 68.97-36.06 16.76-73.59 29.2-112.2 38.58-14.29 3.47-28.64 6.56-43.14 9.02-2.52.43-5.03 1.03-7.57 1.18-17.26 1.02-34.53 1.64-51.66-1.35-8.81-1.54-17.87-1.53-26.45-4.44-25.2-4.8-49.55-12.46-73.36-21.89-50.87-20.13-97.97-46.91-140.99-80.72-21.66-17.02-41.77-35.69-59.72-56.72-21.86-25.61-38.36-54.17-49.9-85.72-8.62-23.56-15.48-49.98-19.95-75.89-2.83-16.43-4.29-32.97-5.82-49.5-1.54-16.56-.99-33.24-.47-49.87.2-6.38.96-12.74 1.54-19.11.34-3.82.89-7.62 1.22-11.44 2.73-32.02 9.84-63.14 20.36-93.42 8.21-23.63 18.84-46.18 33.52-66.6 7.08-9.85 14.1-19.8 23.66-27.52 1.19-.97 2.6-.67 3.3.52.96 1.63 1.96 3.31 2.47 5.1 1.25 4.37 1.34 8.92.41 13.31-1.45 6.86-2.73 13.79-5.51 20.32-2 4.7-3.58 9.58-5.41 14.35-1.61 4.18-2.77 8.48-3.85 12.83-6.49 26.26-8.75 52.93-8.15 79.9.09 3.84.27 7.67.49 11.5 2.59 45.51 18.68 85.77 46.95 121.38 14.44 18.18 31.5 33.53 50.01 47.35 6.14 4.59 12.51 8.89 18.86 13.2 24.36 16.54 47.99 34.05 70.42 53.12 32.74 27.84 62.79 58.26 88.43 92.92 27.21 36.79 48.26 76.79 63.21 120.01 1.46 4.23 2.73 8.51 4.74 12.52.28.55.83.97 1.26 1.44.81-.77 1.94-1.39 2.36-2.33 1.28-2.92 2.45-5.91 3.38-8.95 15.4-50.24 40.91-94.91 74.13-135.39 21.16-25.79 44.8-49.12 69.88-71.05 28.92-25.28 59.41-48.56 90.18-71.5 10.76-8.03 21.65-15.88 31.88-24.61 19.68-16.81 35.8-36.53 48.16-59.21 9.85-18.07 16.41-37.35 20.45-57.59 2.64-13.26 3.76-26.57 4.03-40.01.23-11.52-.05-23.03-.88-34.52-.37-5.09-1.11-10.16-1.84-15.22-2.19-15.19-5.03-30.26-9.18-45.05-1.9-6.77-3.81-13.53-5.67-20.31-1.69-6.16-3.43-12.31-4.95-18.51-.92-3.74-1.04-7.58-.7-11.44.14-1.59.74-2.35 2.07-2.63 1.31-.27 2.47-.13 3.54.82.48.42.99.81 1.4 1.29 33.89 38.74 56.91 83.15 69.38 133.06 3.88 15.52 7.2 31.14 8.25 47.15 3.02 16.46 2.94 33.1 2.91 52.57Z" class="cls-2"/><path d="M502.46 553.03c-.59-.1-1.45 0-1.7-.34-.73-1.01-1.42-2.13-1.77-3.32-8.93-30.73-20.49-60.43-35.21-88.86-21.65-41.81-49.67-78.77-84.69-110.33-16.17-14.57-33.57-27.52-51.83-39.33-4.28-2.77-8.59-5.52-12.82-8.37-1.01-.68-1.33-2-.88-3.34.13-.39 1.11-.68 1.71-.7 10.2-.47 20.32-1.71 30.45-2.88 35.56-4.11 65.97-18.7 91.24-44.11 13.63-13.7 24.59-29.34 33.94-46.15 7.76-13.95 14.56-28.38 20.42-43.26 2.8-7.11 5.11-14.42 8.62-21.23.52-1 2-1 3.18-.04.95.78 1.87 1.83 2.31 2.95 2.82 7.12 5.6 14.25 8.22 21.45 3.92 10.79 7.64 21.66 11.55 32.46 4.35 12.03 9.46 23.71 16.12 34.67 10.51 17.29 24.51 30.96 42.25 40.74 13.54 7.47 27.89 12.32 43.24 14.7 13.94 2.16 27.89 3.19 41.96 3.11 3.18-.02 6.37.2 9.55.36 1.35.07 2.16.98 2.18 2.54 0 .53-.31 1.21-.71 1.57-2.37 2.12-4.69 4.31-7.24 6.2-19.53 14.49-37.72 30.5-54.83 47.78-42.86 43.3-74.79 93.57-96.42 150.47-6.36 16.72-11.83 33.71-16.21 51.05-.36 1.42-1.39 2.12-2.65 2.2Z" class="cls-2"/></g></svg>