<?xml version="1.0" encoding="UTF-8"?><svg id="Layer_2" xmlns="http://www.w3.org/2000/svg" viewBox="0 0 1030.48 1029.5"><defs><style>.cls-1{fill:#0e0d0e;}.cls-2{fill:#de5a29;}</style></defs><g id="Layer_1-2"><g><path class="cls-2" d="M.03,541.68c.33-1.88,.92-3.75,.93-5.63,.07-13.4,.06-26.8-.03-40.2-.01-1.88-.61-3.75-.93-5.63,.35-6.38,.7-12.77,1.06-19.15,.43-7.66,1.11-15.28,2.56-22.85,1.68-8.78,1.77-17.83,4.4-26.46,8.93-49.43,25.44-96.27,48.64-140.74,30.2-57.87,69.78-108.4,118.86-151.51,51.03-44.82,108.47-78.62,172.56-101.05,21.1-7.39,42.59-13.38,64.55-17.77,9.41-1.88,18.93-3,28.28-5.02,8.82-1.91,17.82-1.68,26.65-2.99C489.82-.64,512.19-.06,534.56,.24c7.67,.11,15.33,.5,22.93,1.77,2.52,.42,5.07,.74,7.62,.87,21.79,1.06,43.08,5.41,64.28,10.07,24.97,5.49,49.37,13.01,73.16,22.43,23.19,9.18,45.66,19.87,67.31,32.27,20.55,11.77,40.22,24.82,58.99,39.28,66.03,50.88,116.89,114,152.69,189.23,16.81,35.32,29.51,72.07,37.51,110.42,2.87,13.77,5.26,27.58,7.32,41.49,4.34,29.24,4.4,58.61,3.88,88.02-.13,7.03-.39,14.07-.85,21.08-.38,5.73-1.1,11.44-1.75,17.16-.36,3.17-.98,6.32-1.32,9.5-2.45,22.93-7.33,45.41-13.39,67.6-18.44,67.47-49.53,128.6-93,183.37-40.19,50.64-88.33,92.15-144.14,124.8-34.33,20.09-70.51,35.94-108.52,47.56-18.93,5.78-38.03,10.93-57.64,13.95-13.02,3.53-26.58,3.57-39.74,6.23-2.49,.5-5.08,.52-7.64,.68-31.3,1.9-62.61,2.04-93.92,.03-4.46-.29-8.89-.93-13.33-1.5-2.53-.33-5.03-.97-7.56-1.26-41.97-4.83-83.2-16.4-116.68-29.37-59.62-23.09-113.2-56.01-160.73-98.82-53.47-48.16-95.17-104.95-125.18-170.3-14.17-30.85-24.92-62.89-32.65-95.99-4.36-18.7-7.48-37.6-9.97-56.59-1.41-10.75-1.52-21.68-2.21-32.52Zm517.23,413.87v-.12c9.59,0,19.17,0,28.76,0,40.26,0,80.52,0,120.79-.06,5.1,0,10.21-.28,15.3-.61,4.25-.28,8.7-4.46,9.24-8.49,.34-2.53,.7-5.07,.73-7.61,.1-8.31,.14-16.62,.04-24.93-.1-9.01,1.14-17.79,3.21-26.56,1.64-6.94,4.29-13.36,7.93-19.42,4.03-6.7,9.43-12.05,16.16-16.03,6.65-3.93,13.7-6.64,21.35-8.15,8.19-1.62,16.35-2.7,24.71-2.64,15.98,.12,31.95,.06,47.93,0,5.75-.02,11.5-.18,17.24-.44,3.84-.18,7.52-1.17,11.19-2.42,11.85-4.03,21.43-11.24,29.53-20.57,8.23-9.47,13.02-20.4,13.45-33.06,.13-3.83,.18-7.67,.19-11.5,.01-58.16,0-116.33,0-174.49,0-3.83-.08-7.67-.16-11.5-.18-8.48-2.51-16.33-6.56-23.78-3.71-6.84-8.57-12.69-14.29-17.88-11.3-10.25-24.46-16.07-39.83-16.53-3.83-.11-7.67-.11-11.5-.12-53.68,0-107.37,0-161.05,0-4.47,0-8.94,.14-13.42,.2-7.1,.11-13.87,1.72-20.61,3.94-12.61,4.16-22.48,11.9-30.38,22.35-4.68,6.19-8.13,13.17-9.81,20.64-2.1,9.32-3.84,18.75-3.7,28.45,.24,17.25,.18,34.51,.18,51.77,0,4.47-.16,8.94-.46,13.4-.26,3.85-1.4,7.47-2.99,11.03-4.21,9.46-10.02,17.78-17.16,25.22-6.32,6.59-13.66,11.43-22.61,13.8-3.74,.99-7.46,1.81-11.3,1.9-7.03,.17-14.06,.19-21.08,.19-6.39,0-12.78-.14-19.17-.15-5.14,0-10.1,.92-15.06,2.42-11.96,3.63-22.04,10.08-30.22,19.43-9.11,10.41-14.7,22.35-14.73,36.48-.01,5.11-.06,10.23-.07,15.34-.02,7.03,.1,14.06-.07,21.09-.29,12.5-4.38,23.79-11.54,33.96-4.44,6.31-9.85,11.76-16.04,16.36-6.24,4.64-13.04,7.96-20.92,8.87-4.43,.51-8.83,1.36-13.22,2.21-1.87,.36-3.74,.93-5.47,1.71-4.32,1.95-7.18,5.32-8.3,9.89-.6,2.45-.82,5.07-.72,7.59,.5,12.78,.62,25.55-.09,38.33-.14,2.53,.08,5.12,.44,7.64,.46,3.27,2.15,5.95,4.66,8.12,2.47,2.13,5.28,3.75,8.52,4.02,5.08,.43,10.2,.65,15.3,.66,48.57,.05,97.14,.03,145.71,.03Zm-174-427.22v-.05c-38.36,0-76.72-.03-115.08,.02-7.03,0-14.06,.33-21.08,.5-7.17,.17-13.91,2.18-20.28,5.23-19.7,9.44-32.12,24.69-36.64,46.25-1.59,7.56-2.26,15.12-2.24,22.84,.08,51.79,.03,103.58,.04,155.37,0,15.04,.14,15.02,2.4,30.52,.75,5.13,2.22,9.98,4.09,14.73,4.85,12.35,12.76,22.07,24.86,27.98,4.01,1.96,8.1,3.71,12.46,4.89,9.32,2.53,18.74,3.82,28.41,3.79,29.41-.07,58.82-.08,88.23,.03,9.03,.03,17.8-1.28,26.48-3.67,20.66-5.69,34.53-18.77,41.8-38.75,2.84-7.8,4.7-15.93,4.62-24.37-.04-4.47,.25-8.95,.15-13.42-.24-10.97,1.95-21.64,4.17-32.26,1.58-7.53,4.87-14.54,9.41-20.84,3.79-5.26,8.49-9.56,14.25-12.58,8-4.19,16.42-7.23,25.49-7.72,8.93-.48,17.89-.79,26.83-.61,9.03,.18,17.81-.88,26.58-2.93,4.42-1.03,8.59-2.59,12.56-4.61,11.59-5.9,21.22-14.23,28.91-24.68,5.82-7.9,9.32-16.73,9.08-26.75-.31-12.78-.42-25.57-1.08-38.34-.36-7.03-2.08-13.96-5.32-20.27-8.46-16.48-20.98-28.78-38.13-36.23-4.16-1.81-8.39-3.18-12.88-3.46-5.74-.35-11.49-.6-17.24-.6-40.28-.05-80.55-.03-120.83-.03Zm189.95-212.54c.17,44.12,.31,86.27,.53,128.43,.03,6.38-.1,12.83,.77,19.12,1.8,12.9,8.6,22.44,20.75,27.77,5.91,2.59,12.08,4.08,18.56,4.15,1.92,.02,3.83,.16,5.74,.16,22.35,.01,44.7,.03,67.06-.01,3.83,0,7.67-.13,11.48-.51,23.24-2.35,35.68-14.79,37.61-38.21,.52-6.35,.42-12.76,.42-19.15,.02-79.84,0-159.68,0-239.52,0-3.83,0-7.67-.07-11.5-.05-2.55-.2-5.1-.32-7.66-.2-4.53-1.45-8.78-3.2-12.94-5.2-12.3-14.58-19.09-27.65-20.7-5.05-.62-10.2-.54-15.3-.56-23.63-.06-47.26-.08-70.89-.02-5.1,.01-10.22,.18-15.3,.65-16.65,1.57-27.44,15.45-28.86,28.77-.67,6.33-.73,12.75-.77,19.13-.25,41.52-.41,83.03-.59,122.59Zm-195.14,2.69s-.06,0-.09,0c0,28.77-.01,57.54,0,86.31,0,13.43,0,26.85,.13,40.28,.05,5.75-.01,11.55,.72,17.23,1.76,13.68,8.54,23.83,21.77,29.09,5.4,2.15,10.92,3.59,16.74,3.75,2.56,.07,5.11,.27,7.67,.27,22.37,.02,44.75,.03,67.12-.02,3.83,0,7.69-.11,11.48-.61,16.48-2.18,28.86-9.68,34.13-26.47,1.16-3.69,2.16-7.37,2.3-11.22,.26-7.03,.52-14.06,.53-21.09,.07-54.34,.1-108.69,.1-163.03,0-25.57-.05-51.15-.14-76.72-.02-5.75-.32-11.5-.47-17.25-.13-5.23-1.82-10.06-3.96-14.72-3.04-6.61-7.89-11.57-14.4-14.84-4.61-2.32-9.43-3.95-14.65-4.15-5.75-.22-11.49-.59-17.24-.61-23.01-.09-46.03-.13-69.04-.04-5.1,.02-10.26,.23-15.27,1.08-7.8,1.33-14.41,5.22-19.31,11.5-4.41,5.65-7.18,12.11-7.62,19.34-.35,5.74-.48,11.5-.49,17.25-.04,41.56-.02,83.11-.02,124.67Zm-25.99,25.67s-.08,0-.13,0c0-8.3,.03-16.61,0-24.91-.14-28.11-.36-56.22-.41-84.32-.01-7.16-1.62-13.92-3.95-20.57-.62-1.78-1.65-3.47-2.73-5.03-4.87-7.04-11.18-12.07-19.6-14.47-5.58-1.59-11.14-2.7-16.95-2.69-23.63,.03-47.27,0-70.9,0-1.28,0-2.55,.08-3.83,.06-7.78-.08-15.27,1.71-22.51,4.18-7.46,2.54-13.37,7.32-16.98,14.61-1.71,3.46-3.12,6.98-3.66,10.83-1.33,9.48-2.63,18.93-2.56,28.58,.22,28.11,.09,56.22,.09,84.32,0,36.41,.09,72.83-.06,109.24-.04,8.38,.96,16.54,2.84,24.66,1.03,4.46,3.18,8.34,5.97,11.88,6.69,8.46,15.54,13.09,26.17,14.27,4.43,.49,8.92,.64,13.39,.65,22.99,.05,45.99,.02,68.98-.02,3.19,0,6.38-.28,9.57-.38,5.22-.16,10.08-1.73,14.67-4.03,9.57-4.79,16.15-12.16,19.35-22.56,1.91-6.19,2.65-12.44,2.67-18.88,.14-35.14,.36-70.27,.56-105.41Zm571.55,.04h-.12c0-8.94,0-17.88,0-26.82,0-26.18-.11-52.37,.04-78.55,.05-7.82-1.45-15.28-4.12-22.48-3.73-10.06-10.59-17.31-20.81-21.13-5.41-2.02-10.91-3.5-16.75-3.65-26.82-.71-53.63-.87-80.45-.02-5.81,.18-11.35,1.38-16.81,3.38-11.73,4.3-19.02,12.6-22.03,24.54-1.87,7.42-2.83,15-2.81,22.74,.13,66.42,.16,132.84,.07,199.26-.01,9,.97,17.83,2.61,26.63,.84,4.52,2.92,8.43,5.65,12.01,6.55,8.58,15.38,13.3,25.97,14.6,5.05,.62,10.19,.73,15.3,.74,21.71,.06,43.42,0,65.13-.03,2.55,0,5.1-.21,7.66-.27,5.82-.13,11.32-1.63,16.76-3.63,10.32-3.81,17.02-11.15,20.46-21.34,2.45-7.25,4.12-14.74,4.06-22.52-.06-8.3,.16-16.6,.17-24.91,.03-26.18,0-52.37,0-78.55Z"/><path class="cls-1" d="M517.26,955.55c-48.57,0-97.14,.02-145.71-.03-5.1,0-10.21-.23-15.3-.66-3.24-.27-6.05-1.88-8.52-4.02-2.51-2.16-4.2-4.85-4.66-8.12-.35-2.52-.58-5.1-.44-7.64,.71-12.78,.6-25.55,.09-38.33-.1-2.52,.12-5.14,.72-7.59,1.12-4.57,3.99-7.94,8.3-9.89,1.73-.78,3.6-1.35,5.47-1.71,4.39-.85,8.78-1.7,13.22-2.21,7.88-.91,14.69-4.23,20.92-8.87,6.19-4.61,11.6-10.05,16.04-16.36,7.16-10.17,11.25-21.45,11.54-33.96,.16-7.03,.05-14.06,.07-21.09,.02-5.11,.06-10.23,.07-15.34,.03-14.13,5.63-26.07,14.73-36.48,8.18-9.34,18.26-15.79,30.22-19.43,4.96-1.51,9.92-2.43,15.06-2.42,6.39,0,12.78,.15,19.17,.15,7.03,0,14.06-.02,21.08-.19,3.83-.09,7.56-.91,11.3-1.9,8.95-2.37,16.29-7.2,22.61-13.8,7.14-7.44,12.95-15.77,17.16-25.22,1.58-3.56,2.73-7.18,2.99-11.03,.3-4.46,.46-8.93,.46-13.4,0-17.26,.07-34.51-.18-51.77-.14-9.7,1.61-19.13,3.7-28.45,1.68-7.48,5.13-14.45,9.81-20.64,7.9-10.44,17.77-18.19,30.38-22.35,6.73-2.22,13.51-3.84,20.61-3.94,4.47-.07,8.94-.2,13.42-.2,53.68-.01,107.37-.01,161.05,0,3.83,0,7.67,0,11.5,.12,15.36,.46,28.52,6.28,39.83,16.53,5.72,5.19,10.58,11.04,14.29,17.88,4.04,7.45,6.38,15.3,6.56,23.78,.08,3.83,.16,7.67,.16,11.5,.01,58.16,.01,116.33,0,174.49,0,3.83-.06,7.67-.19,11.5-.43,12.66-5.22,23.59-13.45,33.06-8.11,9.33-17.69,16.53-29.53,20.57-3.67,1.25-7.35,2.24-11.19,2.42-5.74,.26-11.49,.42-17.24,.44-15.98,.06-31.95,.12-47.93,0-8.36-.06-16.52,1.02-24.71,2.64-7.65,1.51-14.7,4.22-21.35,8.15-6.73,3.98-12.13,9.32-16.16,16.03-3.64,6.06-6.29,12.47-7.93,19.42-2.07,8.76-3.31,17.55-3.21,26.56,.1,8.31,.06,16.62-.04,24.93-.03,2.54-.4,5.08-.73,7.61-.53,4.03-4.99,8.21-9.24,8.49-5.09,.33-10.2,.6-15.3,.61-40.26,.06-80.52,.05-120.79,.06-9.59,0-19.17,0-28.76,0v.12Z"/><path class="cls-1" d="M343.26,528.33c40.28,0,80.55-.02,120.83,.03,5.75,0,11.5,.25,17.24,.6,4.5,.28,8.72,1.65,12.88,3.46,17.15,7.45,29.66,19.74,38.13,36.23,3.24,6.3,4.96,13.24,5.32,20.27,.66,12.76,.77,25.56,1.08,38.34,.24,10.02-3.26,18.84-9.08,26.75-7.69,10.45-17.32,18.78-28.91,24.68-3.97,2.02-8.14,3.58-12.56,4.61-8.77,2.05-17.55,3.12-26.58,2.93-8.94-.18-17.9,.13-26.83,.61-9.07,.49-17.49,3.53-25.49,7.72-5.76,3.02-10.47,7.33-14.25,12.58-4.54,6.3-7.83,13.3-9.41,20.84-2.22,10.62-4.42,21.29-4.17,32.26,.1,4.47-.2,8.95-.15,13.42,.08,8.44-1.78,16.57-4.62,24.37-7.27,19.98-21.14,33.05-41.8,38.75-8.68,2.39-17.44,3.71-26.48,3.67-29.41-.11-58.82-.11-88.23-.03-9.66,.02-19.09-1.26-28.41-3.79-4.36-1.19-8.45-2.93-12.46-4.89-12.1-5.91-20.01-15.62-24.86-27.98-1.87-4.76-3.34-9.61-4.09-14.73-2.26-15.5-2.4-15.48-2.4-30.52,0-51.79,.03-103.58-.04-155.37-.01-7.71,.66-15.28,2.24-22.84,4.53-21.56,16.94-36.81,36.64-46.25,6.38-3.06,13.12-5.06,20.28-5.23,7.03-.17,14.06-.49,21.08-.5,38.36-.05,76.72-.02,115.08-.02v.05Z"/><path class="cls-1" d="M533.21,315.78c.18-39.55,.35-81.07,.59-122.59,.04-6.38,.09-12.79,.77-19.13,1.41-13.32,12.21-27.2,28.86-28.77,5.08-.48,10.2-.64,15.3-.65,23.63-.06,47.26-.04,70.89,.02,5.1,.01,10.25-.07,15.3,.56,13.07,1.61,22.45,8.4,27.65,20.7,1.76,4.16,3,8.41,3.2,12.94,.11,2.55,.27,5.1,.32,7.66,.07,3.83,.07,7.66,.07,11.5,0,79.84,.02,159.68,0,239.52,0,6.38,.1,12.8-.42,19.15-1.94,23.42-14.37,35.86-37.61,38.21-3.81,.39-7.65,.5-11.48,.51-22.35,.04-44.7,.02-67.06,.01-1.91,0-3.83-.13-5.74-.16-6.48-.07-12.65-1.56-18.56-4.15-12.15-5.33-18.96-14.87-20.75-27.77-.87-6.29-.74-12.74-.77-19.12-.22-42.15-.36-84.31-.53-128.43Z"/><path class="cls-1" d="M338.07,318.47c0-41.56-.02-83.11,.02-124.67,0-5.75,.14-11.51,.49-17.25,.44-7.23,3.21-13.69,7.62-19.34,4.9-6.28,11.51-10.17,19.31-11.5,5.01-.85,10.17-1.06,15.27-1.08,23.01-.09,46.03-.05,69.04,.04,5.75,.02,11.49,.4,17.24,.61,5.22,.2,10.04,1.83,14.65,4.15,6.51,3.27,11.36,8.23,14.4,14.84,2.14,4.66,3.83,9.49,3.96,14.72,.15,5.75,.44,11.5,.47,17.25,.09,25.57,.14,51.15,.14,76.72,0,54.34-.03,108.69-.1,163.03,0,7.03-.26,14.06-.53,21.09-.14,3.85-1.15,7.52-2.3,11.22-5.27,16.79-17.65,24.3-34.13,26.47-3.79,.5-7.65,.6-11.48,.61-22.37,.06-44.75,.04-67.12,.02-2.56,0-5.11-.2-7.67-.27-5.83-.16-11.34-1.61-16.74-3.75-13.23-5.26-20.01-15.4-21.77-29.09-.73-5.68-.67-11.48-.72-17.23-.12-13.43-.12-26.85-.13-40.28-.02-28.77,0-57.54,0-86.31,.03,0,.06,0,.09,0Z"/><path class="cls-1" d="M312.08,344.15c-.19,35.14-.41,70.27-.56,105.41-.03,6.43-.76,12.68-2.67,18.88-3.2,10.4-9.78,17.77-19.35,22.56-4.59,2.3-9.45,3.87-14.67,4.03-3.19,.1-6.38,.37-9.57,.38-22.99,.04-45.99,.07-68.98,.02-4.47,0-8.96-.15-13.39-.65-10.62-1.18-19.48-5.81-26.17-14.27-2.8-3.54-4.94-7.42-5.97-11.88-1.88-8.12-2.87-16.28-2.84-24.66,.15-36.41,.07-72.83,.06-109.24,0-28.11,.13-56.22-.09-84.32-.08-9.65,1.23-19.1,2.56-28.58,.54-3.85,1.94-7.37,3.66-10.83,3.61-7.29,9.52-12.07,16.98-14.61,7.24-2.47,14.73-4.27,22.51-4.18,1.28,.01,2.55-.06,3.83-.06,23.63,0,47.27,.03,70.9,0,5.81,0,11.37,1.1,16.95,2.69,8.42,2.4,14.72,7.42,19.6,14.47,1.08,1.56,2.11,3.25,2.73,5.03,2.32,6.65,3.93,13.42,3.95,20.57,.04,28.11,.27,56.22,.41,84.32,.04,8.3,0,16.61,0,24.91,.04,0,.08,0,.13,0Z"/><path class="cls-1" d="M883.62,344.19c0,26.18,.02,52.37,0,78.55,0,8.3-.24,16.61-.17,24.91,.06,7.78-1.62,15.27-4.06,22.52-3.44,10.18-10.14,17.53-20.46,21.34-5.43,2-10.93,3.5-16.76,3.63-2.55,.06-5.1,.26-7.66,.27-21.71,.04-43.42,.09-65.13,.03-5.1-.01-10.24-.12-15.3-.74-10.59-1.3-19.42-6.02-25.97-14.6-2.73-3.58-4.81-7.49-5.65-12.01-1.64-8.81-2.62-17.63-2.61-26.63,.09-66.42,.06-132.84-.07-199.26-.02-7.75,.94-15.32,2.81-22.74,3.01-11.94,10.3-20.24,22.03-24.54,5.46-2,11-3.19,16.81-3.38,26.82-.85,53.63-.69,80.45,.02,5.84,.15,11.34,1.63,16.75,3.65,10.21,3.82,17.07,11.07,20.81,21.13,2.67,7.2,4.17,14.66,4.12,22.48-.15,26.18-.05,52.37-.04,78.55,0,8.94,0,17.88,0,26.82h.12Z"/></g></g></svg>