<svg xmlns="http://www.w3.org/2000/svg" id="Layer_2" viewBox="0 0 1032.12 1029.61"><defs><style>.cls-1{fill:#ec452a}</style></defs><g id="Layer_1-2"><path d="M0 516.57c.35-7.65.61-14.04.95-20.42.24-4.47.66-8.93.89-13.4 2.63-52.85 14.44-103.71 33.65-152.88 31.34-80.21 80.11-148.2 145.1-204.47 58.9-50.99 126.17-86.7 201.2-107.63 14.13-3.94 28.36-7.73 42.99-9.56 13.03-3.51 26.6-3.55 39.77-6.15 3.12-.61 6.36-.65 9.55-.83 28.77-1.62 57.54-1.66 86.31-.05 5.75.32 11.49.73 17.14 1.94 1.87.4 3.78.73 5.68.9 23.01 2.02 45.42 7.28 67.64 13.19 20.36 5.41 40.26 12.38 59.8 20.36C835 88.33 936.66 188.05 990.07 311.19c14.3 32.97 24.84 67.08 32.4 102.16 1.57 12.04 4.89 23.82 5.52 36.01 5.6 36.91 4.43 73.98 2.62 111.07-2.14 14.54-3.59 29.16-6.06 43.68-4.85 28.46-12.3 56.18-21.96 83.31-18.6 52.24-45.05 100.23-79.29 143.83-49.4 62.91-110.15 111.9-182.1 146.83-33.42 16.23-68.19 28.87-104.52 36.98-16.61 4.87-33.81 6.72-50.76 9.89-3.13.58-6.36.62-9.55.89-4.46.38-8.95.53-13.38 1.14-26.12 3.62-52.34 2.81-78.54 1.57-12.12-.57-24.25-1.82-36.26-3.56-25.3-3.67-50.38-8.6-74.93-15.84-26.37-7.78-52.07-17.41-76.95-29.19-24.32-11.51-47.61-24.8-69.8-40-72.66-49.78-129.4-113.73-169.84-192-19.45-37.65-33.85-77.19-43.18-118.58-3.24-14.36-6.17-28.73-7.9-43.36-.83-6.98-2.4-13.85-2.78-20.91-.89-16.6-1.93-33.2-2.83-48.57Zm659.7-106.64c-.28-25.35.05-47.76-4.04-69.91-.53-11.56-3.23-22.8-5.64-34.02-5.1-23.78-12.15-47-21.69-69.44-9.28-21.84-20.07-42.82-33.71-62.29-12.55-17.92-27.06-34.04-43.92-47.97-20.87-17.25-44.07-30.61-69.12-40.76-4.72-1.91-9.32-4.28-14.44-5.09-.52-.08-1.2.19-1.66.52-1.03.73-1.48 2.05-.71 3.27 3.08 4.86 6.42 9.56 9.48 14.43 4.43 7.03 8.88 14.06 13 21.28 8.65 15.13 14.5 31.28 16.7 48.65.48 3.83.55 7.65-.15 11.46-.46 2.52-1.07 5.01-1.46 7.53-1.41 9.01-5.03 17.12-9.78 24.81-3.71 6.01-8.05 11.53-12.92 16.64-8.39 8.82-17.44 16.9-27.03 24.42-22.14 17.37-44.11 34.93-65.24 53.54-17.81 15.69-34.37 32.52-49.1 51.13-7.56 9.55-14.43 19.59-20.26 30.26-14.09 25.78-21.66 53.18-19.73 82.8.08 1.28.09 2.56.22 3.83.27 2.54.48 5.1.92 7.61 2.87 16.43 7.33 32.4 14.2 47.64 1.04 2.31 1.92 4.7 2.75 7.1.17.49-.13 1.19-.33 1.74-.52 1.44-1.45 1.47-3.01.73-6.42-3.04-11.97-7.41-17.5-11.71-14.22-11.07-26.74-23.76-36.4-39.14-10.06-16-15.87-33.52-18-52.13-2.38-20.79-.45-43.75 4.91-64.72 3.64-14.23 7.47-28.44 12.97-42.11 1.19-2.96 2.28-5.97 3.37-8.97.21-.59.34-1.26.31-1.88-.03-.59-.26-1.19-.49-1.75-.53-1.24-1.67-1.69-3.08-.91-7.33 4.07-13.21 10.05-19.44 15.49-24.72 21.6-46.22 45.98-62.56 74.64-18.06 31.66-28.47 65.54-29.29 102.13-.2 8.95.04 17.91.15 26.86.18 14.16 3.11 27.91 6.4 41.6 5.56 23.16 14.88 44.89 26.01 65.81 8.71 16.37 18.4 32.2 29.23 47.3 7.08 9.87 14.14 19.76 21.24 29.62.79 1.09 1.32 2.22 1.21 3.56-.09 1.15-1.05 2.42-2.39 2.15-11.99-2.38-23.12-7.27-34.17-12.25-20.48-9.23-39.64-20.76-57.63-34.19-7.68-5.74-15.09-11.84-22.65-17.73-2.52-1.96-5.05-3.93-7.73-5.65-.98-.63-2.7-1.09-3.55-.64-.76.41-1.26 2.27-1.06 3.34 1.38 7.54 3.52 14.88 5.79 22.21 10.05 32.55 23.96 63.35 41.92 92.29 22.79 36.71 50.57 69.01 84.39 96.12 43.09 34.53 91.57 58.14 144.8 72.17 22.25 5.86 44.76 10.62 67.79 12.38 2.54.19 5.05.8 7.59 1.09 5.08.57 10.16 1.29 15.26 1.52 23.01 1.05 46.03 1.22 69.05.27 4.47-.18 9.01-.13 13.39-.93 13.2-2.42 26.74-2.67 39.76-6.19 32.25-5.75 63.23-15.68 93.14-28.93 51.44-22.79 96.99-54.16 136.56-94.22 18.93-19.17 35.96-39.86 51.27-62.02 21.18-30.67 38.23-63.47 51.65-98.22 8.77-22.71 15.22-46.09 20.84-69.73.43-1.82-.24-5.44-.99-5.35-1.24.15-2.66.27-3.65.93-7.46 4.95-14.92 9.89-22.2 15.09-15.63 11.16-31.85 21.39-48.17 31.47-15.25 9.42-31.13 17.67-47.55 24.86-14.15 6.2-29.02 9.98-44.23 12.16-10.13 1.46-20.41 1.14-30.62-.03-1.48-.17-2.38-.77-2.68-2.29-.24-1.2-.09-2.51.92-3.4 6.71-5.93 13.42-11.86 20.26-17.64 21.04-17.78 40.65-37.06 59.23-57.36 13.4-14.64 25.69-30.2 36.38-46.96 7.93-12.43 14.78-25.38 20.2-39.13 4.97-12.63 7.17-25.82 9.07-39.11.18-1.26.12-2.55.16-3.83.34-10.99-1.73-21.68-4.81-32.11-5.14-17.42-13.96-32.88-26.27-46.29-.42-.46-.97-.91-1.55-1.12-1.34-.49-2.83-.48-3.45.45-1.77 2.63-3.45 5.36-4.85 8.21-3.4 6.9-7.21 13.54-11.5 19.92-10.07 14.96-21.87 28.23-36.26 39.28-13.81 10.61-28.72 19.17-44.74 25.77-23.76 9.78-48.66 15.52-73.93 19.68-5.03.83-10.18 1-15.28 1.31-1.89.11-3.81-.21-5.72-.4-3.59-.35-7.37-3.91-7.88-7.38-.19-1.26-.5-2.52-.54-3.79-.23-7.05-.16-14.12 1.12-21.04 1.76-9.49 2.13-19.06 2.44-28.65.36-10.87.54-21.74.73-29.64Z" class="cls-1"/><path fill="#0e0d0e" d="M659.7 409.93c-.19 7.9-.37 18.77-.73 29.64-.32 9.59-.69 19.16-2.44 28.65-1.28 6.92-1.36 14-1.12 21.04.04 1.27.35 2.53.54 3.79.51 3.47 4.29 7.03 7.88 7.38 1.9.19 3.83.51 5.72.4 5.1-.31 10.25-.48 15.28-1.31 25.28-4.16 50.17-9.9 73.93-19.68 16.02-6.59 30.93-15.16 44.74-25.77 14.39-11.05 26.19-24.32 36.26-39.28 4.29-6.38 8.1-13.02 11.5-19.92 1.4-2.85 3.08-5.57 4.85-8.21.62-.93 2.11-.94 3.45-.45.58.21 1.12.65 1.55 1.12 12.31 13.41 21.13 28.87 26.27 46.29 3.08 10.43 5.15 21.12 4.81 32.11-.04 1.28.02 2.57-.16 3.83-1.91 13.29-4.1 26.48-9.07 39.11-5.42 13.75-12.27 26.7-20.2 39.13-10.69 16.77-22.98 32.32-36.38 46.96-18.58 20.3-38.19 39.57-59.23 57.36-6.84 5.78-13.55 11.71-20.26 17.64-1.02.9-1.16 2.2-.92 3.4.3 1.51 1.2 2.12 2.68 2.29 10.21 1.16 20.49 1.48 30.62.03 15.21-2.19 30.08-5.96 44.23-12.16 16.42-7.2 32.3-15.45 47.55-24.86 16.32-10.08 32.54-20.31 48.17-31.47 7.28-5.2 14.75-10.14 22.2-15.09.99-.66 2.4-.78 3.65-.93.76-.09 1.43 3.53.99 5.35-5.62 23.64-12.07 47.02-20.84 69.73-13.42 34.75-30.47 67.55-51.65 98.22-15.31 22.16-32.33 42.85-51.27 62.02-39.57 40.07-85.12 71.43-136.56 94.22-29.9 13.25-60.88 23.18-93.14 28.93-13.02 3.52-26.56 3.78-39.76 6.19-4.37.8-8.92.75-13.39.93-23.02.95-46.04.78-69.05-.27-5.1-.23-10.18-.95-15.26-1.52-2.54-.28-5.05-.89-7.59-1.09-23.03-1.76-45.54-6.52-67.79-12.38-53.23-14.03-101.71-37.63-144.8-72.17-33.82-27.1-61.6-59.41-84.39-96.12-17.96-28.94-31.87-59.74-41.92-92.29-2.26-7.32-4.4-14.67-5.79-22.21-.2-1.07.3-2.93 1.06-3.34.85-.46 2.57 0 3.55.64 2.68 1.72 5.21 3.69 7.73 5.65 7.56 5.9 14.97 12 22.65 17.73 17.99 13.43 37.15 24.96 57.63 34.19 11.05 4.98 22.18 9.87 34.17 12.25 1.34.27 2.3-1 2.39-2.15.11-1.34-.43-2.47-1.21-3.56-7.1-9.86-14.15-19.75-21.24-29.62-10.83-15.09-20.52-30.92-29.23-47.3-11.13-20.92-20.44-42.65-26.01-65.81-3.29-13.69-6.22-27.44-6.4-41.6-.11-8.95-.35-17.91-.15-26.86.81-36.59 11.23-70.47 29.29-102.13 16.34-28.65 37.84-53.04 62.56-74.64 6.23-5.44 12.1-11.41 19.44-15.49 1.41-.78 2.55-.34 3.08.91.24.56.47 1.16.49 1.75.03.62-.09 1.29-.31 1.88-1.09 3-2.18 6.01-3.37 8.97-5.5 13.68-9.33 27.88-12.97 42.11-5.36 20.97-7.29 43.93-4.91 64.72 2.13 18.61 7.95 36.13 18 52.13 9.66 15.37 22.18 28.07 36.4 39.14 5.53 4.3 11.09 8.67 17.5 11.71 1.56.74 2.49.71 3.01-.73.2-.56.5-1.26.33-1.74-.83-2.4-1.71-4.79-2.75-7.1-6.87-15.25-11.33-31.21-14.2-47.64-.44-2.51-.66-5.07-.92-7.61-.13-1.27-.14-2.55-.22-3.83-1.92-29.63 5.64-57.03 19.73-82.8 5.83-10.67 12.71-20.71 20.26-30.26 14.73-18.61 31.29-35.44 49.1-51.13 21.13-18.61 43.1-36.18 65.24-53.54 9.58-7.52 18.63-15.6 27.03-24.42 4.87-5.11 9.21-10.63 12.92-16.64 4.75-7.68 8.37-15.8 9.78-24.81.4-2.53 1-5.02 1.46-7.53.7-3.81.64-7.63.15-11.46-2.2-17.37-8.04-33.52-16.7-48.65-4.12-7.21-8.57-14.24-13-21.28-3.07-4.87-6.41-9.57-9.48-14.43-.77-1.22-.31-2.54.71-3.27.45-.32 1.14-.6 1.66-.52 5.12.81 9.72 3.17 14.44 5.09 25.05 10.16 48.25 23.52 69.12 40.76 16.86 13.93 31.37 30.05 43.92 47.97 13.64 19.48 24.43 40.46 33.71 62.29 9.53 22.44 16.59 45.66 21.69 69.44 2.4 11.22 5.1 22.46 5.64 34.02 4.09 22.15 3.76 44.56 4.04 69.91ZM508.83 944.06c3.68-.18 6.88-.25 10.06-.52 8.27-.69 16.54-1.46 24.81-2.22 2.54-.23 5.14-.29 7.61-.87 10.57-2.47 21.34-3.92 31.81-6.89 17.23-4.89 34.05-10.87 50.31-18.39 8.17-3.78 15.77-8.49 22.08-14.98 9.76-10.03 15.36-21.83 15.01-36.11-.14-5.79-.93-11.38-2.78-16.93-2.04-6.1-4.65-11.87-7.81-17.45-3.14-5.56-6.21-11.16-9.19-16.8-6-11.37-10.17-23.38-12.89-35.95-3.63-16.77-2.13-32.93 4.83-48.68 3.93-8.89 9.23-16.79 15.83-23.82 4.81-5.12 9.94-9.92 14.96-14.85 1.02-1 1.49-2.08 1.27-3.38-.21-1.21-1.11-1.87-2.67-1.91-7.74-.19-15.17 1.69-22.7 3.19-9.47 1.88-18.52 4.88-27.27 8.83-14.71 6.63-27.82 15.61-39.02 27.3-3.53 3.69-7 7.44-10.5 11.17-.95 1.02-2.08 1.36-3.32 1.52-1.61.21-2.47-.82-2.98-3.96-.92-5.67-2.07-11.32-2.68-17.03-.68-6.4-2.41-12.52-4.08-18.69-3.94-14.53-11.26-27.06-22.21-37.4-3.71-3.51-7.73-6.68-11.49-10.15-5.16-4.76-10.31-9.55-15.25-14.53-3.17-3.2-5.33-7.14-7.01-11.34-1.72-4.3-2.15-8.73-.98-13.15 1.48-5.56 3.37-11.01 6.46-15.92 4.42-7.02 8.83-14.06 13.38-21 3.49-5.34 7.21-10.53 10.76-15.84.29-.44.12-1.25.01-1.87-.2-1.17-1.12-2.05-2.6-2.09-5.13-.12-10.17.62-15.17 1.8-35.16 8.33-64.74 26.52-90.65 51.2-3.72 3.54-6.84 7.57-9.89 11.69-4.28 5.79-6.64 12.35-7.95 19.31-.35 1.84-.34 3.87.03 5.71 1.38 6.92 3.48 13.6 7.04 19.76 3.21 5.54 6.75 10.84 10.86 15.76 4.91 5.88 9.77 11.82 14.63 17.74 4.5 5.48 7.84 11.65 10.52 18.18.72 1.76 1.34 3.6 1.74 5.46 1.62 7.58 1.93 15.2.36 22.83-.39 1.87-.72 3.8-1.47 5.54-4.62 10.8-11.25 20.02-21.31 26.44-2.43 1.55-5.11.43-6.19-2.23-.71-1.77-1.45-3.54-1.98-5.37-1.42-4.95-3.69-9.52-6.14-14.01-5.03-9.23-12.23-16.35-21.46-21.31-9.68-5.2-20.03-8.36-31.02-9.06-5.09-.33-10.21-.16-15.32-.2-1.6-.01-2.51.69-2.55 2.05-.02.56.02 1.34.37 1.68 5 4.93 10.09 9.76 15.09 14.69 4.13 4.06 7.41 8.78 10.21 13.83 3.49 6.3 5.22 12.99 4.53 20.26-.3 3.2-.92 6.29-2.04 9.32-1.79 4.81-3.85 9.5-6.57 13.82-3.06 4.86-6.37 9.57-9.76 14.2-3.77 5.15-7.86 10.08-11.62 15.23-4.23 5.79-6.54 12.45-7.4 19.5-.38 3.11-.2 6.45.51 9.5 1.16 4.96 2.86 9.78 5.24 14.36 10.05 19.3 24.37 34.27 44.12 43.68 31.39 14.95 64.13 25.13 99.05 27.39 3.82.25 7.62.81 11.44 1.14 3.81.33 7.64.54 10.98.77Z"/><path d="M508.82 944.06c-3.34-.23-7.16-.45-10.98-.77-3.82-.33-7.62-.89-11.44-1.14-34.92-2.26-67.66-12.44-99.05-27.39-19.75-9.41-34.08-24.38-44.12-43.68-2.38-4.58-4.08-9.4-5.24-14.36-.71-3.05-.89-6.39-.51-9.5.86-7.05 3.17-13.7 7.4-19.5 3.77-5.16 7.85-10.08 11.62-15.23 3.39-4.63 6.7-9.34 9.76-14.2 2.72-4.32 4.78-9.02 6.57-13.82 1.12-3.03 1.74-6.11 2.04-9.32.69-7.26-1.05-13.96-4.53-20.26-2.8-5.05-6.08-9.77-10.21-13.83-5-4.93-10.09-9.76-15.09-14.69-.35-.34-.39-1.11-.37-1.68.04-1.37.95-2.07 2.55-2.05 5.11.04 10.23-.12 15.32.2 10.99.7 21.35 3.86 31.02 9.06 9.23 4.96 16.43 12.08 21.46 21.31 2.44 4.49 4.72 9.06 6.14 14.01.52 1.83 1.26 3.6 1.98 5.37 1.08 2.66 3.76 3.78 6.19 2.23 10.06-6.42 16.69-15.64 21.31-26.44.74-1.74 1.08-3.67 1.47-5.54 1.58-7.63 1.27-15.26-.36-22.83-.4-1.86-1.01-3.7-1.74-5.46-2.68-6.53-6.02-12.7-10.52-18.18-4.87-5.92-9.72-11.86-14.63-17.74-4.11-4.92-7.65-10.22-10.86-15.76-3.57-6.16-5.67-12.84-7.04-19.76-.37-1.84-.37-3.87-.03-5.71 1.31-6.97 3.67-13.52 7.95-19.31 3.05-4.12 6.17-8.15 9.89-11.69 25.91-24.69 55.49-42.87 90.65-51.2 5-1.19 10.04-1.93 15.17-1.8 1.48.04 2.4.92 2.6 2.09.11.61.28 1.43-.01 1.87-3.55 5.31-7.26 10.5-10.76 15.84-4.55 6.94-8.96 13.98-13.38 21-3.09 4.92-4.99 10.37-6.46 15.92-1.17 4.42-.75 8.84.98 13.15 1.68 4.2 3.85 8.14 7.01 11.34 4.94 4.99 10.09 9.77 15.25 14.53 3.75 3.46 7.78 6.64 11.49 10.15 10.95 10.34 18.26 22.87 22.21 37.4 1.67 6.16 3.4 12.28 4.08 18.69.6 5.71 1.76 11.36 2.68 17.03.51 3.14 1.37 4.17 2.98 3.96 1.24-.16 2.36-.51 3.32-1.52 3.5-3.72 6.97-7.48 10.5-11.17 11.19-11.69 24.31-20.67 39.02-27.3 8.74-3.94 17.8-6.95 27.27-8.83 7.52-1.49 14.96-3.37 22.7-3.19 1.56.04 2.46.7 2.67 1.91.23 1.29-.25 2.37-1.27 3.38-5.01 4.92-10.15 9.73-14.96 14.85-6.6 7.03-11.9 14.93-15.83 23.82-6.96 15.75-8.46 31.91-4.83 48.68 2.72 12.56 6.9 24.58 12.89 35.95 2.98 5.65 6.05 11.25 9.19 16.8 3.16 5.58 5.76 11.34 7.81 17.45 1.85 5.55 2.64 11.14 2.78 16.93.35 14.28-5.25 26.08-15.01 36.11-6.32 6.49-13.91 11.2-22.08 14.98-16.26 7.52-33.08 13.51-50.31 18.39-10.47 2.97-21.24 4.42-31.81 6.89-2.47.58-5.07.63-7.61.87-8.27.76-16.54 1.53-24.81 2.22-3.18.27-6.37.34-10.06.52Z" class="cls-1"/></g></svg>