<svg xmlns="http://www.w3.org/2000/svg" id="Layer_2" viewBox="0 0 1031.83 1028.35"><defs><style>.cls-2{fill:#22a24b}</style></defs><g id="Layer_1-2"><path d="M470.54.2c2.47.68 4.99.83 7.53.68 5.06-.29 10.12-.59 15.18-.88 1.87.18 3.75.52 5.62.53 11.95.05 23.9.06 35.85.02 1.88 0 3.75-.34 5.63-.52 5.06.29 10.13.58 15.19.87 2.54.15 5.06 0 7.53-.68 70.94 6.62 137.79 26.75 200.16 61.23 93.29 51.59 164.29 125.04 213.17 219.69 20.03 38.77 34.63 79.62 43.75 122.38 3.2 15.01 5.7 30.1 7.84 45.31 5.1 36.32 4.23 72.71 2.52 109.15-.09 1.92-.16 3.85-.5 5.73-2.42 13.21-2.52 26.76-5.87 39.82-8.56 50.83-24.84 99.12-48.67 144.75-55.54 106.34-138.13 184.39-247.08 234.48-33.21 15.27-67.87 26.41-103.59 33.95-21.87 4.62-43.94 8.45-66.38 9.37-4.47.18-8.92.78-13.38 1.13-19.16 1.51-38.32 1.58-57.48-.09-3.82-.33-7.64-.8-11.47-.99-36.56-1.76-79.2-10.94-110.91-20.7-36.14-11.13-70.78-25.91-103.56-44.85C159.65 901.64 85.39 818.09 39.41 709.59c-13.76-32.46-23.76-66.08-30.04-100.81-4.44-24.51-6.09-35.96-7.52-58.9-.75-12.12-2.17-24.22-1.78-36.39.25-7.67.56-15.33.91-22.99.18-3.83.55-7.65.76-11.49 2.57-48.26 13.07-94.87 29.66-140.14 22.94-62.57 56.95-118.5 101.48-168.05 46.76-52.02 101.75-93.07 164.8-123.26 35.87-17.17 73.39-29.73 112.23-38.19 16.57-3.61 42.71-7.94 60.62-9.16ZM124.39 567.31c.36 9.39.49 20.27 1.3 31.1.42 5.69 2.26 11.26 3.03 16.94 1.21 8.91 3.7 17.5 6.34 26.02 5.49 17.77 13.29 34.55 22.92 50.47 5.97 9.87 12.76 19.17 20.4 27.76 15.79 17.75 33.24 33.66 53.72 45.94 14.79 8.87 29.54 17.79 45.82 23.85 10.77 4 21.25 8.77 32.02 12.78 11.49 4.28 22 10.28 31.9 17.35 12.71 9.08 22.41 20.86 29.32 34.86 3.41 6.91 6.23 14.2 6.94 21.81 1.13 12.09 3.87 23.98 4.03 36.18.03 2.52.54 5.12 1.3 7.53 4.14 13.02 10.65 20.59 23 26.79 2.26 1.14 4.79 1.73 7.18 2.63 4.81 1.8 9.69 3.21 14.88 3.39 2.55.09 5.16.2 7.61.84 6.21 1.61 12.5 2.55 18.89 3.08 2.53.21 5.07.73 7.5 1.46 3.7 1.12 7.45 1.81 11.28 2.11 4.48.36 8.84 1.21 13.19 2.37 2.44.65 5.04.94 7.57.91 5.56-.06 9.81-2.63 12.37-7.6.86-1.67 1.54-3.57 1.71-5.42.73-8.3 1.13-16.72-.55-24.85-1.7-8.2-2.2-16.45-2.98-24.71-.36-3.8-1.17-7.56-1.86-11.33-1.97-10.75-2.38-21.59-1.75-32.47.24-4.16 2.54-7.2 6.25-8.97 2.28-1.09 4.68-2.22 7.14-2.6 6.93-1.07 14-1.23 20.81-3.23 1.81-.53 3.79-.54 5.7-.67 8.92-.59 17.9-.66 26.56-3.34 1.2-.37 2.53-.47 3.8-.48 12.23-.09 23.84-4.55 36.01-5.01 6.18-1.62 12.48-2.6 18.77-3.69 6.9-1.2 13.65-3.31 20.67-3.95 7.74-3.31 16.23-3.23 24.25-5.52 9.81-2.8 19.66-5.5 29.51-8.15 14.84-3.98 29.25-9.04 43.58-14.5 10.17-3.87 19.94-8.59 29.96-12.76 5.92-2.47 11.64-5.24 17.17-8.46 4.41-2.57 8.89-5.05 13.4-7.45 11.88-6.32 22.95-13.94 33.8-21.82 8.26-6 15.99-12.75 23.7-19.45 10.68-9.29 18.77-20.89 27.59-31.83 1.19-1.48 2.1-3.2 3.09-4.85 4.61-7.68 8.94-15.53 12.29-23.84 5.73-14.25 10.94-28.67 11.14-44.33.06-4.49.9-8.89 1.79-13.28.76-3.79.91-7.69 0-11.43-1.53-6.3-1.47-12.66-1.5-19.06-.04-8.31-.47-16.62-.43-24.93.06-14.19-3.15-27.91-6.17-41.6-4-18.08-9.32-35.84-14.99-53.46-5.28-16.42-10.98-32.69-17.35-48.73-8.96-22.57-18.27-44.99-28.88-66.83-10.61-21.85-21.61-43.48-33.65-64.6-10.77-18.88-21.64-37.7-33.26-56.05-25.3-39.96-52.04-78.97-79.52-117.45-3.71-5.2-7.5-10.35-11.37-15.43-2.32-3.05-4.85-5.94-7.33-8.86-4.87-5.75-11.02-8.47-18.62-7.97-5.12.34-10.09 1.04-15.01 2.74-12.07 4.19-23.95 8.87-35.82 13.57-21.37 8.47-42.62 17.28-63.46 26.99-30.13 14.03-59.92 28.75-89.17 44.53-13.49 7.28-27 14.6-40.02 22.67-16.29 10.1-32.67 20.05-48.62 30.71-32.45 21.68-63.94 44.57-93.19 70.46-1.43 1.27-3 2.39-4.45 3.65-4.34 3.77-8.83 7.39-12.94 11.39-9.17 8.91-18.18 17.98-27.17 27.08-3.14 3.18-6.1 6.55-9.03 9.93-4.59 5.32-9.09 10.72-13.6 16.11-2.05 2.45-4.14 4.88-6.08 7.41-11.28 14.71-22.08 29.78-31.67 45.65-6.28 10.38-12.69 20.78-17.87 31.72-6.28 13.26-12.5 26.59-17.33 40.51-2.72 7.85-5.24 15.72-7.41 23.75-2.17 8.05-3.15 16.3-5.18 24.34-1.26 5.01-1.86 10.05-2.06 15.16-.32 8.31-.57 16.61-.89 26.4Z" class="cls-2"/><path fill="#0e0d0e" d="M124.39 567.31c.33-9.79.57-18.1.89-26.4.2-5.12.8-10.15 2.06-15.16 2.03-8.04 3.01-16.29 5.18-24.34 2.17-8.03 4.69-15.9 7.41-23.75 4.83-13.92 11.05-27.26 17.33-40.51 5.18-10.94 11.59-21.33 17.87-31.72 9.6-15.87 20.39-30.94 31.67-45.65 1.94-2.53 4.03-4.96 6.08-7.41 4.52-5.38 9.01-10.79 13.6-16.11 2.92-3.39 5.88-6.75 9.03-9.93 8.99-9.09 18.01-18.16 27.17-27.08 4.12-4 8.6-7.62 12.94-11.39 1.45-1.26 3.01-2.38 4.45-3.65 29.24-25.9 60.74-48.78 93.19-70.46 15.95-10.66 32.34-20.61 48.62-30.71 13.02-8.07 26.52-15.4 40.02-22.67 29.26-15.77 59.05-30.5 89.17-44.53 20.84-9.71 42.09-18.51 63.46-26.99 11.87-4.71 23.75-9.38 35.82-13.57 4.92-1.71 9.89-2.41 15.01-2.74 7.6-.5 13.74 2.22 18.62 7.97 2.48 2.92 5.01 5.82 7.33 8.86 3.87 5.08 7.66 10.23 11.37 15.43 27.49 38.49 54.22 77.49 79.52 117.45 11.62 18.35 22.49 37.17 33.26 56.05 12.05 21.12 23.05 42.75 33.65 64.6 10.61 21.85 19.91 44.26 28.88 66.83 6.37 16.04 12.07 32.31 17.35 48.73 5.67 17.63 10.99 35.38 14.99 53.46 3.03 13.69 6.23 27.4 6.17 41.6-.04 8.31.4 16.62.43 24.93.03 6.4-.03 12.76 1.5 19.06.91 3.74.77 7.65 0 11.43-.89 4.4-1.73 8.79-1.79 13.28-.2 15.66-5.4 30.08-11.14 44.33-3.34 8.31-7.68 16.16-12.29 23.84-.98 1.64-1.89 3.36-3.09 4.85-8.82 10.94-16.9 22.54-27.59 31.83-7.71 6.7-15.44 13.46-23.7 19.45-10.85 7.88-21.92 15.49-33.8 21.82-4.51 2.4-8.99 4.87-13.4 7.45-5.53 3.22-11.25 5.99-17.17 8.46-10.02 4.17-19.79 8.89-29.96 12.76-14.33 5.45-28.75 10.52-43.58 14.5-9.86 2.64-19.71 5.34-29.51 8.15-8.02 2.29-16.52 2.21-24.25 5.52-7.03.64-13.77 2.75-20.67 3.95-6.29 1.09-12.59 2.07-18.77 3.69-12.17.46-23.78 4.92-36.01 5.01-1.27 0-2.59.1-3.8.48-8.66 2.68-17.64 2.76-26.56 3.34-1.91.13-3.89.14-5.7.67-6.81 2-13.87 2.16-20.81 3.23-2.46.38-4.86 1.5-7.14 2.6-3.71 1.78-6.01 4.82-6.25 8.97-.63 10.88-.22 21.72 1.75 32.47.69 3.77 1.51 7.53 1.86 11.33.77 8.26 1.28 16.51 2.98 24.71 1.68 8.13 1.29 16.55.55 24.85-.16 1.85-.85 3.75-1.71 5.42-2.56 4.97-6.81 7.54-12.37 7.6-2.53.03-5.13-.26-7.57-.91-4.34-1.16-8.71-2.02-13.19-2.37-3.83-.3-7.58-1-11.28-2.11-2.43-.73-4.98-1.25-7.5-1.46-6.39-.53-12.67-1.47-18.89-3.08-2.45-.63-5.06-.75-7.61-.84-5.19-.18-10.07-1.59-14.88-3.39-2.39-.89-4.92-1.49-7.18-2.63-12.35-6.2-18.86-13.77-23-26.79-.77-2.41-1.27-5.01-1.3-7.53-.16-12.19-2.9-24.09-4.03-36.18-.71-7.61-3.53-14.91-6.94-21.81-6.92-14.01-16.61-25.78-29.32-34.86-9.89-7.07-20.41-13.07-31.9-17.35-10.77-4.01-21.25-8.78-32.02-12.78-16.29-6.06-31.03-14.98-45.82-23.85-20.49-12.29-37.94-28.19-53.72-45.94-7.64-8.59-14.44-17.89-20.4-27.76-9.62-15.93-17.42-32.7-22.92-50.47-2.63-8.52-5.13-17.11-6.34-26.02-.77-5.68-2.61-11.25-3.03-16.94-.81-10.83-.94-21.71-1.3-31.1Zm277.66 182.14h-.25c0 3.2.14 6.4-.02 9.59-.75 14.92 2.47 29.15 6.87 43.28 4.39 14.12 10.5 27.43 17.52 40.38.6 1.11 1.47 2.08 2.28 3.07.39.48.89.88 1.39 1.26 1.21.92 2.38.93 3.48.07.48-.38 1.21-.66 1.39-1.15 1.6-4.29 1.13-8.83 1.42-13.28.45-7.01-.08-14.12 1.55-21.01 1.48-6.29 1.68-12.66 1.93-19.05.27-7.03.47-14.06.74-21.09.12-3.19-.09-6.48.59-9.56 1.78-8.17 2.04-16.48 2.96-24.73.36-3.24 1.67-6.17 3.56-8.8 1.49-2.07 3.03-4.13 4.73-6.03 5.56-6.22 11.84-11.72 18.57-16.59 17.11-12.37 34.93-23.65 53.74-33.27 18.82-9.63 38.52-17.11 58.75-23.15 12.22-3.65 24.46-7.36 37.28-8.46 1.9-.16 3.83-.5 5.64-1.09 4.93-1.6 10.01-2 15.13-2.29 8.29-.47 16.61-.59 24.76-2.6 2.44-.6 5.08-.55 7.63-.57 8.95-.05 17.9-.07 26.86.04 3.19.04 6.46.06 9.53.8 7.54 1.81 15.21 1.9 22.86 2.3 5.75.3 11.46.74 17.02 2.51 2.41.76 5.02.92 7.55 1.25 1.26.17 2.58.31 3.82.12 1.16-.18 2.33-.67 3.35-1.28 1-.6-.18-4.09-1.53-5.05-6.31-4.46-13.25-7.76-20.31-10.74-9.43-3.98-19.25-6.95-29.29-8.86-5.62-1.07-11.46-.94-17.19-1.41-5.73-.48-11.23-2.57-17.05-2.49-.64 0-1.28-.05-1.92-.07-22.37-.78-44.75-1.29-67.13-.69-10.85.29-21.75.11-32.36 3.13-1.82.52-3.8.51-5.71.65-5.11.37-10.11 1.19-15.09 2.53-5.53 1.48-11.3 2.05-16.89 3.35-7.46 1.73-14.86 3.7-22.25 5.72-14.17 3.88-28.23 8.11-41.55 14.45-2.86 1.36-5.91 2.39-8.97 3.22-1.04.28-2.5-.29-3.54-.88-2.36-1.33-3.8-3.6-4.02-6.19-.7-8.3-.59-16.6.97-24.83.71-3.76 1.37-7.54 1.83-11.34 2.15-18.01 5.91-30.29 14.27-45.35 5.32-9.59 11.88-18.06 20.98-24.56 5.74-4.1 11.36-8.29 17.88-11.07 2.94-1.25 5.91-2.47 8.96-3.39 16.55-4.96 32.44-11.68 48.43-18.12 7.11-2.86 14.48-5 21.73-7.45 7.3-2.46 14.99-3.25 22.2-5.89 7.03-.6 13.8-2.7 20.73-3.7 6.94-1 14.02-1.01 21.04-1.34 15.98-.75 31.96-.77 47.94-.06 11.48.51 23.04.29 34.21 3.69.6.18 1.26.23 1.9.25 7.09.21 13.88 1.99 20.69 3.74 1.78.46 3.77.15 5.66.07.45-.02 1.2-.51 1.23-.85.06-.58-.13-1.51-.55-1.77-22.98-14.32-48.09-23.54-74.03-30.69-6.14-1.69-12.41-3.1-18.72-3.97-7.58-1.05-15.28-1.18-22.76-3.16-2.43-.64-5.08-.58-7.63-.62-7.03-.12-14.07-.21-21.1-.15-7.67.06-15.32.15-22.84 2.19-3.05.83-6.32.9-9.5 1.16-5.74.47-11.5.77-16.94 2.97-18.26 3.45-35.93 8.89-53.06 16.06-5.3 2.22-10.61 4.43-15.94 6.58-1.17.47-2.45.68-3.66 1.06-2.16.67-5.33-1.85-5.26-4.17.02-.63-.23-1.3-.12-1.9 1.1-5.64 1.99-11.34 3.45-16.89 2.45-9.29 5.73-18.33 10.81-26.55 4.36-7.07 8.72-14.24 15.09-19.73 5.32-4.59 10.67-9.29 16.6-12.97 12.47-7.75 25.05-15.41 38.71-21 8.86-3.63 17.72-7.29 26.64-10.76 19.9-7.74 42.29-13.5 64.7-16.83 1.26-.19 2.58-.22 3.78-.62 8.02-2.66 16.36-2.65 24.66-3.05 3.83-.18 7.67-.32 11.49-.61 3.2-.24 6.29-1.08 9.2-2.47.54-.26 1.15-.83 1.29-1.37.24-.93-.46-2.05-1.85-2.51-11.5-3.87-22.94-7.96-35.29-8.33-3.17-.09-6.34-.77-9.46-1.4-11.42-2.32-22.9-1.55-34.39-.86-7.44 2.14-15.14 2.31-22.78 3.01-1.9.17-3.8.52-5.66.94-18.69 4.23-37.21 9.03-55.28 15.48-4.21 1.5-8.41 3.03-12.64 4.47-1.18.4-2.47.5-3.7.77-1.58.35-3.62-2.08-3.18-3.74 2.46-9.27 6.04-18.15 9.38-27.11 6.02-16.16 12.03-32.33 18.21-48.43 6.64-17.29 12.7-34.81 19.68-51.98.71-1.74.97-3.68 1.26-5.56.08-.54-.3-1.3-.71-1.72-.74-.76-1.95-.73-3.17.14-1.03.73-1.98 1.62-2.82 2.58-7.17 8.2-13.33 17.16-19.55 26.06-18.7 26.75-35.78 54.49-50.14 83.85-1.68 3.44-3.46 6.85-5.42 10.14-2.3 3.87-5.21 7.26-8.92 9.92-3.34 2.39-6.96 3.14-10.85 1.69-6.63-2.47-12.79-5.86-18.37-10.22-13.23-10.33-28.21-17.47-43.5-24.05-6.47-2.78-13.18-5.21-20.12-6.09-13.98-1.77-28.05-2-42.06.12-1.21.18-2.44.8-3.48 1.49-1.19.79-1.61 1.99-1.32 3.1.16.59.48 1.33.96 1.61 1.65.97 3.33 1.95 5.12 2.62 25.46 9.5 47.78 24.22 68.76 41.2 2.48 2 4.93 4.13 6.98 6.55 6.62 7.83 12.6 16.09 16.35 25.79 1.4 3.62 2.41 7.25 2.76 11.11.81 8.95.58 17.89-.37 26.81-.27 2.53-.75 5.06-1.44 7.51-3.14 11.09-7.53 21.71-12.44 32.11-.51 1.08-1.63 1.93-2.59 2.74-.97.81-2.38 1.22-3.57.61-7.42-3.77-13.95-8.97-20.93-13.44-9.7-6.21-19.6-12.07-30.26-16.51-14.2-5.93-28.74-10.57-44.26-11.51-7.88-.48-28.19-.65-36.1-.05-3.19.24-6.38.37-9.57.57-3.84.24-7.57.96-11.32 1.86-8.68 2.08-17.36 4.14-25.96 6.5-.59.16-1.07.68-1.6 1.04 1.04.69 1.99 1.68 3.13 2.01 5.52 1.58 10.99 3.4 16.83 3.64 2.54.1 5.12.43 7.59 1.04 13.01 3.24 26.06 6.43 38.59 11.25 13.74 5.28 27 11.7 39.56 19.39 9.27 5.67 18.12 12.02 25.87 19.74 5.89 5.87 11.73 11.78 17.53 17.73 1.78 1.83 3.41 3.82 5 5.82 5.36 6.73 8.41 14.25 7.86 23.02-.24 3.84-.61 7.62-1.61 11.36-2.64 9.87-4.7 19.86-6.8 29.86-2.36 11.24-3.97 22.64-6.95 33.75-.17.62-.25 1.25-.4 1.88-.88 3.77-3.82 5.27-6.89 3.36-11.43-7.07-23.37-13.19-35.4-19.16-12.05-5.98-24.5-10.94-37.47-14.5-11.07-3.04-22.09-6.2-33.74-6.59-6.99-.24-13.95-2.06-20.93-2.06s-13.94 1.5-20.93 2.12c-6.36.56-12.67.92-18.92 2.68-6.74 1.9-13.78 2.76-20.25 5.67-.52.23-1.05.91-1.15 1.47-.16.84.78 1.72 2.34 1.77 7.1.21 13.75 3.07 20.73 3.61 7.74.59 15.02 3.08 22.47 4.74 14.99 3.34 29.51 8.42 43.28 15.22 20.66 10.2 40.34 21.99 58.72 36.04 12.42 9.49 22.48 20.76 30.41 34.09 1.96 3.3 4.31 6.46 5.66 10 4.8 12.55 9.33 25.2 8.79 39-.2 5.11-.03 10.23-.03 15.35Z"/><path d="M402.05 749.45c0-5.12-.17-10.24.03-15.35.55-13.8-3.99-26.45-8.79-39-1.35-3.54-3.7-6.7-5.66-10-7.93-13.33-17.99-24.6-30.41-34.09-18.38-14.05-38.06-25.84-58.72-36.04-13.77-6.8-28.29-11.88-43.28-15.22-7.45-1.66-14.73-4.15-22.47-4.74-6.98-.53-13.63-3.4-20.73-3.61-1.56-.05-2.5-.93-2.34-1.77.11-.55.64-1.23 1.15-1.47 6.47-2.91 13.5-3.78 20.25-5.67 6.26-1.76 12.56-2.12 18.92-2.68 6.99-.61 13.96-2.12 20.93-2.12 6.98 0 13.94 1.83 20.93 2.06 11.65.39 22.67 3.55 33.74 6.59 12.97 3.56 25.43 8.52 37.47 14.5 12.02 5.97 23.97 12.09 35.4 19.16 3.07 1.9 6.02.4 6.89-3.36.14-.62.23-1.26.4-1.88 2.98-11.11 4.59-22.51 6.95-33.75 2.1-10 4.16-19.99 6.8-29.86 1-3.74 1.37-7.53 1.61-11.36.55-8.77-2.5-16.29-7.86-23.02-1.59-2-3.22-3.99-5-5.82-5.8-5.95-11.65-11.86-17.53-17.73-7.74-7.72-16.6-14.06-25.87-19.74-12.56-7.69-25.82-14.11-39.56-19.39-12.52-4.81-25.58-8.01-38.59-11.25-2.47-.61-5.05-.94-7.59-1.04-5.83-.24-11.3-2.07-16.83-3.64-1.14-.33-2.09-1.32-3.13-2.01.53-.35 1.02-.88 1.6-1.04 8.61-2.35 17.29-4.41 25.96-6.5 3.75-.9 7.49-1.62 11.32-1.86 3.19-.2 6.39-.33 9.57-.57 7.91-.6 28.22-.43 36.1.05 15.52.94 30.06 5.58 44.26 11.51 10.65 4.45 20.56 10.31 30.26 16.51 6.99 4.47 13.51 9.66 20.93 13.44 1.19.6 2.6.19 3.57-.61.96-.81 2.08-1.66 2.59-2.74 4.91-10.4 9.31-21.02 12.44-32.11.69-2.45 1.18-4.98 1.44-7.51.95-8.92 1.18-17.86.37-26.81-.35-3.85-1.35-7.49-2.76-11.11-3.75-9.7-9.74-17.95-16.35-25.79-2.05-2.42-4.5-4.55-6.98-6.55-20.97-16.97-43.3-31.7-68.76-41.2-1.79-.67-3.47-1.65-5.12-2.62-.48-.28-.8-1.02-.96-1.61-.29-1.11.13-2.31 1.32-3.1 1.04-.69 2.27-1.31 3.48-1.49 14.01-2.11 28.08-1.89 42.06-.12 6.93.88 13.65 3.31 20.12 6.09 15.29 6.57 30.27 13.72 43.5 24.05 5.58 4.36 11.74 7.74 18.37 10.22 3.89 1.45 7.51.7 10.85-1.69 3.7-2.65 6.61-6.05 8.92-9.92 1.96-3.29 3.74-6.7 5.42-10.14 14.36-29.36 31.44-57.09 50.14-83.85 6.22-8.9 12.38-17.86 19.55-26.06.83-.95 1.79-1.84 2.82-2.58 1.22-.87 2.43-.9 3.17-.14.41.42.79 1.19.71 1.72-.3 1.88-.56 3.82-1.26 5.56-6.98 17.17-13.04 34.68-19.68 51.98-6.18 16.1-12.19 32.27-18.21 48.43-3.34 8.96-6.92 17.84-9.38 27.11-.44 1.66 1.6 4.09 3.18 3.74 1.23-.27 2.52-.37 3.7-.77 4.23-1.44 8.43-2.97 12.64-4.47 18.07-6.45 36.59-11.25 55.28-15.48 1.86-.42 3.76-.77 5.66-.94 7.63-.7 15.33-.87 22.78-3.01 11.49-.69 22.97-1.46 34.39.86 3.12.63 6.3 1.31 9.46 1.4 12.35.37 23.79 4.46 35.29 8.33 1.39.47 2.1 1.58 1.85 2.51-.14.54-.75 1.11-1.29 1.37-2.9 1.39-5.99 2.23-9.2 2.47-3.82.29-7.66.43-11.49.61-8.3.4-16.64.39-24.66 3.05-1.2.4-2.51.43-3.78.62-22.41 3.33-44.8 9.09-64.7 16.83-8.93 3.47-17.78 7.13-26.64 10.76-13.66 5.59-26.24 13.25-38.71 21-5.93 3.69-11.29 8.39-16.6 12.97-6.37 5.49-10.73 12.66-15.09 19.73-5.08 8.22-8.36 17.25-10.81 26.55-1.46 5.55-2.35 11.25-3.45 16.89-.12.6.14 1.27.12 1.9-.08 2.32 3.1 4.84 5.26 4.17 1.21-.38 2.49-.58 3.66-1.06 5.33-2.16 10.63-4.36 15.94-6.58 17.14-7.18 34.8-12.61 53.06-16.06 5.44-2.19 11.19-2.5 16.94-2.97 3.18-.26 6.45-.34 9.5-1.16 7.52-2.04 15.17-2.13 22.84-2.19 7.03-.05 14.07.03 21.1.15 2.55.04 5.2-.02 7.63.62 7.48 1.98 15.18 2.11 22.76 3.16 6.3.87 12.57 2.28 18.72 3.97 25.94 7.15 51.05 16.38 74.03 30.69.42.26.62 1.19.55 1.77-.04.34-.79.84-1.23.85-1.89.08-3.88.39-5.66-.07-6.81-1.75-13.6-3.53-20.69-3.74-.64-.02-1.3-.06-1.9-.25-11.17-3.4-22.73-3.18-34.21-3.69-15.98-.71-31.96-.69-47.94.06-7.02.33-14.11.34-21.04 1.34s-13.7 3.09-20.73 3.7c-7.22 2.64-14.91 3.43-22.2 5.89-7.25 2.45-14.62 4.59-21.73 7.45-16 6.43-31.88 13.15-48.43 18.12-3.05.91-6.02 2.14-8.96 3.39-6.52 2.77-12.13 6.96-17.88 11.07-9.1 6.5-15.66 14.97-20.98 24.56-8.36 15.07-12.12 27.34-14.27 45.35-.45 3.8-1.12 7.58-1.83 11.34-1.56 8.24-1.67 16.53-.97 24.83.22 2.58 1.66 4.86 4.02 6.19 1.04.59 2.5 1.16 3.54.88 3.06-.83 6.11-1.86 8.97-3.22 13.33-6.34 27.38-10.58 41.55-14.45 7.39-2.02 14.79-3.99 22.25-5.72 5.59-1.3 11.36-1.87 16.89-3.35 4.98-1.34 9.98-2.16 15.09-2.53 1.91-.14 3.89-.13 5.71-.65 10.61-3.02 21.51-2.84 32.36-3.13 22.38-.59 44.76-.08 67.13.69.64.02 1.28.08 1.92.07 5.82-.08 11.32 2.02 17.05 2.49 5.73.48 11.57.35 17.19 1.41 10.04 1.91 19.86 4.88 29.29 8.86 7.06 2.98 14 6.28 20.31 10.74 1.36.96 2.53 4.45 1.53 5.05-1.01.61-2.19 1.1-3.35 1.28-1.24.19-2.56.04-3.82-.12-2.53-.34-5.14-.49-7.55-1.25-5.56-1.76-11.27-2.2-17.02-2.51-7.65-.4-15.32-.49-22.86-2.3-3.07-.74-6.34-.76-9.53-.8-8.95-.11-17.9-.09-26.86-.04-2.55.02-5.19-.04-7.63.57-8.15 2.01-16.47 2.14-24.76 2.6-5.12.29-10.2.69-15.13 2.29-1.81.59-3.74.93-5.64 1.09-12.82 1.1-25.07 4.81-37.28 8.46-20.22 6.04-39.93 13.52-58.75 23.15-18.81 9.63-36.63 20.9-53.74 33.27-6.73 4.87-13.01 10.36-18.57 16.59-1.7 1.9-3.24 3.96-4.73 6.03-1.89 2.63-3.2 5.56-3.56 8.8-.92 8.25-1.18 16.56-2.96 24.73-.67 3.08-.47 6.37-.59 9.56-.27 7.03-.46 14.06-.74 21.09-.25 6.39-.45 12.76-1.93 19.05-1.62 6.89-1.1 14-1.55 21.01-.28 4.45.18 8.98-1.42 13.28-.18.49-.91.77-1.39 1.15-1.1.86-2.27.85-3.48-.07-.5-.38-1-.78-1.39-1.26-.8-.99-1.67-1.96-2.28-3.07-7.02-12.95-13.13-26.26-17.52-40.38-4.4-14.13-7.62-28.36-6.87-43.28.16-3.19.02-6.39.02-9.59h.25Z" class="cls-2"/></g></svg>