<svg xmlns="http://www.w3.org/2000/svg" viewBox="0 0 1031.91 1029.16"><path fill="#f3e412" d="M515.22 1029.16c-10.23-.23-20.46-.39-30.69-.7-8.95-.27-17.91-.5-26.69-2.57-1.24-.29-2.52-.46-3.8-.54-18.58-1.15-36.67-5.34-54.73-9.33-18.07-3.99-35.83-9.36-53.3-15.57-57.15-20.34-109.37-49.52-156.26-88.02C124.83 859.12 75.59 793.86 41.9 716.88c-12.85-29.37-22.75-59.75-29.62-91.01-4.38-19.95-8.26-40.07-9.37-60.57-3.26-20.32-2.98-40.8-2.83-61.27.08-10.87.25-21.75 2.19-32.51.34-1.88.45-3.81.56-5.73 1.29-22.41 5.46-44.38 10.44-66.2 5.84-25.58 13.76-50.52 23.49-74.91 16.45-41.22 38.07-79.53 64.33-115.24 8.71-11.85 17.97-23.29 27.82-34.24 12.84-14.28 26.13-28.06 40.38-40.96 57.8-52.33 123.9-89.9 198.49-112.56 16.32-4.96 27.12-7.25 42.65-10.91 9.98-2.35 20.23-3.04 30.13-5.67.62-.16 1.25-.31 1.88-.35C459.03 3.74 475.4.26 492.06.11c15.99-.15 31.98-.15 47.96-.05 8.95.06 17.9.41 26.72 2.26 1.87.39 3.8.59 5.71.67 14.75.59 29.18 3.52 43.58 6.33 22.58 4.4 44.81 10.3 66.57 17.8 16.92 5.83 33.52 12.5 49.74 20.06 38.43 17.91 74.23 40.1 107.13 66.82 21.86 17.75 42.36 36.98 61.11 58.11 20.02 22.56 38.13 46.49 54 72.07 28.85 46.52 50 96.3 62.89 149.61 3.91 16.18 6.6 32.55 9.66 48.88.7 3.76.85 7.62 1.2 11.44.41 4.46.45 8.98 1.22 13.37 1.9 10.77 2.19 21.63 2.29 32.5.11 11.51.07 23.03-.09 34.54-.12 8.31-.35 16.63-1.97 24.84-.37 1.88-.6 3.81-.64 5.72-.25 13.5-3.11 26.66-5.17 39.91-2.06 13.26-5.28 26.32-8.71 39.29-14.86 56.13-38.59 108.26-71.03 156.41-21.52 31.95-46.16 61.31-74.29 87.63-29.99 28.06-62.67 52.55-98.35 73.02-30.04 17.23-61.51 31.21-94.33 42.17-16.36 5.47-33 9.92-49.83 13.75-11.85 2.7-23.89 4.25-35.74 6.87-10.89.37-21.52 3.23-32.37 3.75-14.05.67-28.13.79-42.19 1.15-.64.02-1.28 0-1.92 0v.13Zm38.97-505.76c.38.51.88.97 1.13 1.55.77 1.8.77 3.68.25 5.56-7.33 26.46-14.73 52.91-21.99 79.39-16.05 58.51-32 117.04-48.06 175.54-14.54 52.96-29.19 105.89-43.77 158.84-.5 1.83-.73 3.66-.24 5.6.41 1.61 1.17 2.36 2.78 1.89 1.17-.34 2.79-.54 3.34-1.37 3.16-4.79 6.13-9.71 9.05-14.65C548.8 779.4 640.91 623.04 733.03 466.69c24.98-42.39 50.01-84.75 74.96-127.15 1.59-2.71 3.57-5.27 4.19-8.46.11-.56 0-1.31-.31-1.76-.34-.48-1.11-1.1-1.56-1.01-4.34.91-8.71 1.75-12.96 2.99-64.93 19.08-129.84 38.19-194.74 57.36-36.12 10.67-72.21 21.47-108.33 32.15-2.43.72-4.99 1.03-7.49 1.51-2.56.49-4.59-2.02-3.86-4.85.8-3.08 1.6-6.17 2.55-9.21 28.55-90.77 57.11-181.53 85.68-272.3 3.64-11.57 7.33-23.13 10.94-34.71.57-1.82.9-3.72 1.26-5.6.12-.61.17-1.35-.06-1.9-.46-1.08-.9-2.47-1.78-2.99-1.1-.65-2.62-.17-3.53.76-5.84 5.97-10.04 13.17-14.82 19.93-105.58 149.23-211.1 298.49-316.63 447.75-14.02 19.83-28.04 39.66-42.01 59.53-1.08 1.54-1.76 3.37-2.53 5.1-.78 1.77 2.2 5.23 4.24 5.27 2.61.05 5.01-.64 7.46-1.4 35.37-10.96 70.76-21.86 106.14-32.78 61-18.83 122-37.68 183.01-56.49 15.86-4.89 31.76-9.67 47.65-14.46 1.18-.36 2.45-.38 3.69-.55Z"/><path fill="#0e0d0e" d="M554.2 523.4c-1.23.18-2.51.2-3.69.56-15.89 4.79-31.79 9.57-47.65 14.46-61.01 18.81-122 37.66-183.01 56.49-35.38 10.92-70.77 21.83-106.14 32.78-2.45.76-4.85 1.45-7.46 1.4-2.05-.04-5.03-3.49-4.24-5.27.77-1.74 1.45-3.57 2.53-5.1 13.96-19.87 27.99-39.7 42.01-59.53 105.53-149.26 211.06-298.52 316.63-447.75 4.78-6.75 8.98-13.96 14.82-19.93.91-.93 2.43-1.41 3.53-.76.88.52 1.33 1.91 1.78 2.99.23.55.18 1.28.06 1.9-.36 1.88-.69 3.78-1.26 5.6-3.61 11.58-7.3 23.14-10.94 34.71-28.57 90.76-57.13 181.53-85.68 272.3-.96 3.04-1.76 6.12-2.55 9.21-.73 2.83 1.3 5.34 3.86 4.85 2.5-.48 5.06-.79 7.49-1.51 36.12-10.69 72.2-21.49 108.33-32.15 64.9-19.17 129.82-38.28 194.74-57.36 4.25-1.25 8.62-2.09 12.96-2.99.45-.09 1.22.52 1.56 1.01.31.45.42 1.2.31 1.76-.61 3.19-2.59 5.75-4.19 8.46-24.96 42.4-49.99 84.76-74.96 127.15-92.12 156.35-184.23 312.71-276.35 469.06-2.91 4.95-5.89 9.87-9.05 14.65-.55.83-2.17 1.03-3.34 1.37-1.61.47-2.36-.27-2.78-1.89-.5-1.94-.26-3.77.24-5.6 14.58-52.95 29.23-105.88 43.77-158.84 16.06-58.5 32.01-117.04 48.06-175.54 7.27-26.48 14.66-52.92 21.99-79.39.52-1.87.52-3.75-.25-5.56-.24-.57-.74-1.03-1.13-1.55Z"/></svg>