<svg xmlns="http://www.w3.org/2000/svg" id="Layer_2" viewBox="0 0 1032.02 1028.57"><defs><style>.cls-1{fill:#0e0d0e}</style></defs><g id="Layer_1-2"><path fill="#9aa1a8" d="M514.28 0c13.47.25 24.98.41 36.48.69 8.3.21 16.63.22 24.72 2.63 1.81.54 3.79.56 5.7.72 8.27.69 16.64.61 24.61 3.46 8.33.63 16.35 2.87 24.42 4.78 18.01 4.28 36 8.66 53.46 14.94 27.09 9.75 53.71 20.61 78.91 34.61 22.92 12.74 44.82 27.05 65.89 42.75 25.75 19.19 48.92 41.11 70.74 64.53 4.35 4.67 8 9.97 12.27 14.72 6.42 7.15 12.33 14.66 18.04 22.38 14.47 19.55 28.15 39.6 39.18 61.33 6.66 13.11 13.43 26.18 19.5 39.56 8.98 19.79 16.91 40.01 22.16 61.18.46 1.86 1.18 3.65 1.74 5.48 4.17 13.44 7.07 27.18 9.37 41.04 1.05 6.3 3.49 12.32 3.58 18.81.08 5.8 1.64 11.36 2.75 17.01.61 3.12.69 6.35.83 9.55.32 7.03.56 14.06.79 21.09.17 5.11.49 10.19 1.35 15.27 1.62 9.52 1.61 19.13.11 28.64-.91 5.72-1.29 11.42-1.48 17.18-.23 7.03-.49 14.06-.77 21.09-.17 4.48-.56 8.92-1.73 13.29-.66 2.46-1.19 5-1.33 7.54-.46 8.33-1.58 16.54-3.88 24.57-1.97 15.25-6.49 29.93-10.23 44.78-5.95 23.62-14.58 46.28-24.52 68.48-2.87 6.41-5.52 12.93-8.48 19.3-6.2 13.36-13.89 25.91-21.32 38.59-4.2 7.17-8.54 14.27-13.23 21.12-13.74 20.04-27.91 39.78-44.92 57.25-6.25 6.42-11.13 14.05-17.86 20.03-6.21 5.52-12.51 10.94-18.54 16.65-25.19 23.85-53.24 43.8-82.96 61.59-15.94 9.55-32.41 18.02-49.24 25.78-16.82 7.77-34.28 14.01-51.84 19.94-16.97 5.73-34.39 9.72-51.68 14.23-11.42 1.3-22.41 5.25-34.01 5.46-1.91.03-3.89.17-5.69.73-7.44 2.32-15.11 2.5-22.77 2.84-8.93.4-17.9.22-26.7 2.39-2.44.6-5.09.52-7.64.53-10.23.05-20.46.04-30.7-.02-2.55-.01-5.2.08-7.64-.52-9.43-2.31-19.05-2.02-28.61-2.52-6.38-.33-12.79-.42-18.98-2.38-1.21-.38-2.49-.59-3.76-.74-6.96-.87-13.92-1.37-20.8-3.24-6.74-1.83-13.82-2.23-20.62-4.21-5.49-1.6-11.24-2.06-16.81-3.73-14.06-4.23-28.33-7.8-42.12-12.87-10.19-3.75-20.24-7.88-30.29-11.98-5.91-2.41-11.72-5.1-17.55-7.7-2.34-1.04-4.68-2.08-6.93-3.28-24.85-13.2-49.41-26.93-72.12-43.64-8.74-6.43-17.76-12.56-25.66-20.07-19.97-15.13-36.97-33.42-54.32-51.33-8.91-9.2-16.59-19.46-24.5-29.49-11.09-14.05-21.2-28.84-30.64-44.05-12.48-20.11-24.37-40.54-33.06-62.66-11.38-23.72-19.23-48.72-26.64-73.85-2.7-9.17-5.58-18.34-6.69-27.91-.67-5.73-3-11.07-3.64-16.85-.63-5.69-2.34-11.26-3.1-16.94-.76-5.7-.92-11.47-1.35-17.21-.05-.64-.1-1.29-.27-1.9-3.08-11.25-2.74-22.81-3-34.3-.46-20.47-.33-40.93.4-61.39.21-5.75.42-11.49 1.93-17.12.66-2.45 1-5.02 1.19-7.56.58-7.65.89-15.34 3.38-22.7 1.18-14.08 5.04-27.62 8.53-41.22 3.65-14.22 7.79-28.3 12.72-42.16 5.58-15.67 12.06-30.95 18.63-46.21 1.77-4.11 3.63-8.19 5.76-12.12 10.99-20.21 21.88-40.5 35.04-59.43 12.47-17.95 28.47-39.64 41.41-52.72 3.59-3.63 6.71-7.71 10.07-11.56 6.74-7.71 13.92-14.99 21.73-21.63 3.89-3.31 7.86-6.56 11.55-10.09 12.52-11.96 26.16-22.52 40.36-32.35 9.97-6.91 19.39-14.66 30.28-20.21 23.77-15.21 49.23-27.18 74.94-38.59 12.85-5.7 26.38-9.67 39.67-14.22 16.94-5.8 34.38-9.77 51.75-13.98 3.09-.75 6.3-1.02 9.44-1.55 3.77-.64 7.59-1.11 11.3-2.03 3.75-.93 7.52-1.47 11.35-1.73 5.74-.38 11.48-.7 17.07-2.3 4.35-1.25 8.86-1.23 13.33-1.34 14.7-.38 29.41-.68 42.16-.97Zm2.66 377.4c-65.19 0-130.37 0-195.56.02-5.74 0-11.48.26-17.22.37-1.61.03-3.17 2.57-2.74 4.06 1.24 4.39 3.87 8.04 6.1 11.9 35.52 61.38 71.08 122.73 106.62 184.09 31.7 54.73 63.38 109.47 95.1 164.18 1.59 2.75 3.44 5.36 5.19 8.02 1.03 1.56 3.46 1.34 4.6-.43 1.39-2.14 2.82-4.25 4.1-6.45 18.26-31.51 36.51-63.02 54.73-94.55 36.76-63.61 73.51-127.23 110.26-190.84 13.42-23.23 26.87-46.45 40.24-69.71 1.26-2.19 2.3-4.58 2.98-7 .22-.79-.85-2.66-1.67-2.91-4.34-1.31-8.87-.73-13.32-.74-66.46-.03-132.93-.02-199.39-.02Zm239.37-188.61c-17.89-.39-35.79-.35-53.59-2.51-3.14-.38-6.41-.32-9.55.06-6.63.81-12.24 3.6-15.74 9.62-1.93 3.31-3.77 6.67-5.6 10.04-7.64 14.02-15.25 28.05-22.89 42.08-4.58 8.41-9.21 16.8-13.76 25.23-1.21 2.24-2.19 4.61-3.27 6.93-.68 1.46.76 4.19 2.29 4.28 9.55.59 19.11 1.06 28.65 1.77 5.12.38 10.19.2 15.3-.07 15.31-.81 30.63-1.48 45.95-2.04 9.58-.35 19.2-.42 28.72.77 14.98 1.86 28.34 7.48 39.03 18.5 2.66 2.74 5.15 5.68 7.52 8.68 5.54 7.05 10.26 14.66 14.49 22.55 3.92 7.31 7.72 14.7 11.38 22.15 6.19 12.62 12.59 25.12 19.95 37.11 1.66 2.71 3.12 5.57 4.48 8.45 3.48 7.33 3.47 14.77.52 22.29-2.35 5.98-5.67 11.43-8.87 16.96-18.52 32.09-35.75 64.89-53.39 97.46-.58 1.08-.9 2.36-1.08 3.58-.21 1.5.52 2.54 1.84 2.87 1.22.3 2.47.66 3.71.68 28.74.44 57.51-.03 86.22 1.91 1.27.09 2.56.05 3.83-.1 7.37-.87 13.49-3.81 17.09-10.69 2.08-3.95 4.17-7.91 6.06-11.95 13.83-29.49 27.87-58.88 42.5-87.98 2.01-3.99 3.94-8.03 5.63-12.16 3.04-7.45 2.86-14.88-.4-22.32-2.58-5.89-6.06-11.24-9.34-16.71-21.97-36.73-44-73.41-65.93-110.16-12.11-20.29-24.08-40.67-36.06-61.05-2.59-4.41-5.08-8.87-8.51-12.71-5.3-5.94-11.6-9.87-19.81-10.3-19.14-1.02-38.27-2.14-57.4-3.22Zm-414.48 96.02v.1c19.82-.17 39.64-.32 59.46-.55 2.53-.03 5.12-.27 7.56-.9.84-.22 1.67-1.84 1.85-2.93.19-1.17-.11-2.61-.67-3.68-4.78-9.04-9.67-18.02-14.52-27.02-8.79-16.32-17.6-32.62-26.33-48.97-1.52-2.84-3.14-5.57-5.4-7.86-2.28-2.3-4.9-4.1-8.24-4.5-1.9-.23-3.82-.65-5.71-.57-17.24.73-34.52 1.11-51.71 2.49-11.48.92-22.94 1.76-34.44 2.16-9.58.33-19.17.68-28.76.92-5.17.13-10.15 1.14-15.05 2.65-5.04 1.56-9.28 4.38-12.48 8.5-2.73 3.52-5.24 7.25-7.48 11.11-7.7 13.26-15.16 26.67-22.86 39.94-26.95 46.43-53.97 92.82-80.95 139.23-1.93 3.31-3.75 6.69-5.54 10.08-1.51 2.86-2.17 6-2.56 9.19-.87 7.15-.07 14.02 3.41 20.46.91 1.68 1.7 3.43 2.56 5.15 13.99 28.02 27.97 56.03 41.97 84.04 2 4 3.99 8.01 6.21 11.89 1.26 2.2 2.91 4.19 4.49 6.19 1.62 2.06 3.79 3.51 6.28 4.2 3.06.85 6.2 1.64 9.36 1.87 3.81.28 7.68.15 11.5-.13 14.68-1.07 29.38-1.01 44.09-1.09 10.87-.06 21.74-.1 32.6-.23 1.88-.02 3.76-.42 5.63-.69 1.56-.23 2.25-1.19 2-2.78-.19-1.24-.2-2.58-.72-3.67-8.49-17.92-17.8-35.38-28.77-51.95-6-9.05-11.56-18.4-17.28-27.63-4.05-6.53-7.41-13.43-10.37-20.51-4.25-10.2-6.06-20.82-5.17-31.86.36-4.47 1.14-8.82 2.48-13.14 2.87-9.22 6.9-17.9 11.9-26.1 4.99-8.18 10.27-16.19 15.6-24.15 9.25-13.8 18.85-27.38 26.78-42.02.61-1.12 1.24-2.24 1.97-3.29 5.82-8.4 13.75-13.23 24.01-13.78 5.1-.27 10.22-.14 15.34-.14 15.98-.01 31.97 0 47.95 0Zm176.35 664.21c33.25 0 66.51 0 99.76-.02 5.75 0 11.51-.12 17.26-.29 3.91-.12 7.48-1.44 10.92-3.28 4.01-2.15 7.5-4.91 10.17-8.58 2.63-3.62 5.07-7.37 7.53-11.11 15.82-24.03 31.61-48.08 47.42-72.11 2.81-4.27 5.73-8.48 8.46-12.8 1.36-2.15 2.44-4.48 3.57-6.78 2.4-4.9 2.6-9.86.01-14.74-2.1-3.95-4.35-7.82-6.62-11.67-10.05-17.08-20.13-34.14-30.21-51.2-3.58-6.05-7.18-12.1-10.82-18.11-.65-1.08-1.57-1.99-2.33-3.01-.9-1.21-4.11-1.29-5.02-.08-10.46 13.77-19.63 28.36-27.66 43.67-4.16 7.92-8.13 15.94-12.26 23.88-4.14 7.94-8.28 15.89-13.38 23.26-3.63 5.25-7.34 10.49-11.47 15.34-6.74 7.93-15.08 13.93-24.93 17.3-7.84 2.68-15.94 4.77-24.31 5.11-12.79.52-25.61.79-38.31-.9-14.63-1.95-29.3-2.43-44.01-2.48-4.48-.01-8.97.11-13.42-.22-8.75-.65-15.97-4.48-21.15-11.58-3-4.12-5.62-8.54-8.11-12.99-18.08-32.38-37.42-64.02-56.43-95.85-1.3-2.17-2.97-4.13-4.48-6.17-1-1.35-2.08-1.36-3.19-.02-1.21 1.47-2.58 2.85-3.57 4.46-14.4 23.41-28.75 46.86-43.1 70.31-1.33 2.18-2.66 4.37-3.8 6.65-.85 1.71-1.65 3.52-2.01 5.37-.36 1.83-.57 3.9-.07 5.65.86 3.05 2.06 6.07 3.58 8.85 1.83 3.36 4.14 6.46 6.26 9.65 19.43 29.31 39.27 58.34 57.98 88.12 1.36 2.16 2.8 4.32 4.52 6.18 5.4 5.83 11.92 9.65 20.05 9.97 5.75.23 11.51.21 17.26.21 31.97.02 63.95 0 95.92 0Z"/><path d="M516.94 377.4c66.46 0 132.93 0 199.39.02 4.46 0 8.98-.57 13.32.74.82.25 1.89 2.12 1.67 2.91-.67 2.42-1.72 4.81-2.98 7-13.37 23.26-26.81 46.48-40.24 69.71-36.75 63.61-73.5 127.23-110.26 190.84-18.22 31.53-36.47 63.04-54.73 94.55-1.28 2.2-2.71 4.31-4.1 6.45-1.14 1.76-3.57 1.99-4.6.43-1.75-2.66-3.59-5.27-5.19-8.02-31.72-54.72-63.4-109.45-95.1-164.18-35.54-61.36-71.1-122.72-106.62-184.09-2.23-3.85-4.86-7.51-6.1-11.9-.42-1.5 1.14-4.03 2.74-4.06 5.74-.11 11.48-.37 17.22-.37 65.19-.03 130.37-.02 195.56-.02Z" class="cls-1"/><path d="M756.31 188.79c19.13 1.08 38.26 2.2 57.4 3.22 8.21.44 14.51 4.36 19.81 10.3 3.43 3.84 5.92 8.3 8.51 12.71 11.98 20.37 23.95 40.75 36.06 61.05 21.93 36.75 43.96 73.44 65.93 110.16 3.28 5.48 6.76 10.82 9.34 16.71 3.26 7.44 3.43 14.87.4 22.32-1.69 4.13-3.62 8.17-5.63 12.16-14.64 29.1-28.67 58.49-42.5 87.98-1.9 4.04-3.99 8-6.06 11.95-3.61 6.87-9.73 9.82-17.09 10.69-1.26.15-2.56.19-3.83.1-28.71-1.94-57.47-1.48-86.22-1.91-1.24-.02-2.49-.37-3.71-.68-1.32-.33-2.06-1.37-1.84-2.87.17-1.23.49-2.51 1.08-3.58 17.64-32.57 34.87-65.37 53.39-97.46 3.19-5.53 6.52-10.99 8.87-16.96 2.95-7.51 2.95-14.96-.52-22.29-1.37-2.88-2.82-5.73-4.48-8.45-7.36-11.99-13.76-24.49-19.95-37.11-3.66-7.45-7.45-14.84-11.38-22.15-4.23-7.89-8.95-15.5-14.49-22.55-2.36-3.01-4.85-5.94-7.52-8.68-10.69-11.02-24.05-16.64-39.03-18.5-9.52-1.18-19.14-1.12-28.72-.77-15.32.57-30.64 1.23-45.95 2.04-5.11.27-10.18.46-15.3.07-9.54-.72-19.1-1.18-28.65-1.77-1.53-.09-2.96-2.82-2.29-4.28 1.07-2.32 2.06-4.68 3.27-6.93 4.55-8.43 9.18-16.82 13.76-25.23 7.64-14.02 15.25-28.06 22.89-42.08 1.83-3.36 3.67-6.73 5.6-10.04 3.51-6.02 9.11-8.81 15.74-9.62 3.14-.39 6.41-.44 9.55-.06 17.8 2.16 35.71 2.12 53.59 2.51Zm-414.48 96.02h-47.95c-5.11 0-10.24-.13-15.34.14-10.27.55-18.2 5.38-24.01 13.78-.73 1.05-1.36 2.17-1.97 3.29-7.93 14.64-17.53 28.22-26.78 42.02-5.34 7.96-10.61 15.97-15.6 24.15-5 8.2-9.03 16.88-11.9 26.1-1.35 4.32-2.13 8.67-2.48 13.14-.88 11.05.92 21.66 5.17 31.86 2.95 7.09 6.31 13.98 10.37 20.51 5.73 9.23 11.29 18.58 17.28 27.63 10.97 16.56 20.28 34.02 28.77 51.95.52 1.09.53 2.44.72 3.67.25 1.58-.44 2.55-2 2.78-1.87.27-3.75.67-5.63.69-10.87.13-21.74.18-32.6.23-14.7.08-29.41.03-44.09 1.09-3.82.28-7.69.42-11.5.13-3.15-.23-6.29-1.03-9.36-1.87-2.48-.69-4.65-2.14-6.28-4.2-1.58-2-3.23-3.99-4.49-6.19-2.22-3.88-4.21-7.89-6.21-11.89-14-28.01-27.98-56.03-41.97-84.04-.86-1.72-1.65-3.46-2.56-5.15-3.48-6.43-4.29-13.31-3.41-20.46.39-3.18 1.05-6.32 2.56-9.19 1.78-3.39 3.61-6.77 5.54-10.08 26.97-46.42 53.99-92.8 80.95-139.23 7.7-13.26 15.16-26.67 22.86-39.94 2.24-3.85 4.75-7.59 7.48-11.11 3.2-4.12 7.44-6.95 12.48-8.5 4.91-1.52 9.89-2.52 15.05-2.65 9.59-.24 19.17-.58 28.76-.92 11.5-.4 22.96-1.23 34.44-2.16 17.19-1.38 34.47-1.76 51.71-2.49 1.89-.08 3.81.34 5.71.57 3.34.41 5.96 2.2 8.24 4.5 2.26 2.28 3.88 5.02 5.4 7.86 8.73 16.35 17.54 32.65 26.33 48.97 4.85 9 9.74 17.98 14.52 27.02.56 1.07.86 2.51.67 3.68-.18 1.09-1.01 2.72-1.85 2.93-2.44.63-5.02.87-7.56.9-19.82.23-39.64.38-59.46.55v-.1Zm176.35 664.22h-95.92c-5.75 0-11.51.02-17.26-.21-8.13-.32-14.65-4.14-20.05-9.97-1.72-1.86-3.17-4.02-4.52-6.18-18.72-29.78-38.55-58.82-57.98-88.12-2.12-3.2-4.42-6.3-6.26-9.65-1.52-2.78-2.72-5.8-3.58-8.85-.49-1.75-.28-3.82.07-5.65.36-1.85 1.16-3.66 2.01-5.37 1.14-2.28 2.47-4.47 3.8-6.65 14.35-23.45 28.7-46.89 43.1-70.31.99-1.61 2.36-2.99 3.57-4.46 1.11-1.34 2.19-1.34 3.19.02 1.51 2.05 3.18 4 4.48 6.17 19.01 31.83 38.35 63.47 56.43 95.85 2.49 4.45 5.11 8.87 8.11 12.99 5.18 7.11 12.4 10.94 21.15 11.58 4.46.33 8.95.21 13.42.22 14.72.05 29.39.53 44.01 2.48 12.7 1.69 25.53 1.41 38.31.9 8.37-.34 16.47-2.43 24.31-5.11 9.85-3.37 18.19-9.38 24.93-17.3 4.13-4.86 7.84-10.09 11.47-15.34 5.1-7.37 9.25-15.32 13.38-23.26 4.13-7.94 8.11-15.96 12.26-23.88 8.03-15.31 17.2-29.9 27.66-43.67.92-1.21 4.12-1.12 5.02.08.76 1.02 1.68 1.93 2.33 3.01 3.64 6.02 7.24 12.06 10.82 18.11 10.08 17.06 20.16 34.12 30.21 51.2 2.27 3.85 4.52 7.72 6.62 11.67 2.59 4.87 2.39 9.84-.01 14.74-1.12 2.29-2.21 4.62-3.57 6.78-2.73 4.32-5.65 8.53-8.46 12.8-15.81 24.04-31.61 48.08-47.42 72.11-2.46 3.74-4.9 7.49-7.53 11.11-2.67 3.67-6.16 6.43-10.17 8.58-3.43 1.84-7.01 3.16-10.92 3.28-5.75.17-11.5.29-17.26.29-33.25.03-66.51.01-99.76.01Z" class="cls-1"/></g></svg>