<svg xmlns="http://www.w3.org/2000/svg" id="Layer_2" viewBox="0 0 1032.08 1029.2"><defs><style>.cls-1{fill:#8b509a}</style></defs><g id="Layer_1-2"><path fill="#9154a0" d="M1032.08 518.89c-.26 9.38-.54 21.53-.94 33.67-.23 7.03-.58 14.06-2.19 20.96-.43 1.86-.64 3.79-.82 5.69-2.72 28.1-9.05 55.48-17.09 82.45-8.79 29.46-20.19 57.93-34.25 85.29-16.72 32.53-36.51 63.01-59.6 91.42-19.43 23.91-40.83 45.89-64.07 66-36.97 31.98-77.78 58.09-122.23 78.53-30.88 14.2-62.87 25.13-95.84 33.16-13.02 3.17-26.2 5.97-39.47 7.73-18.35 2.42-36.69 5.22-55.32 5.28-18.55.07-37.09.35-55.63-.33-9.58-.35-19.19-.49-28.59-2.77-1.24-.3-2.53-.38-3.8-.52-36.53-4.17-65.06-11.09-97.02-21.73-58.2-19.37-111.29-48.2-159.23-86.51-30.09-24.05-57.13-51.14-81.47-81C89.34 805.32 68.29 771.83 50.97 736c-16.19-33.48-28.66-68.32-36.96-104.63-3.28-14.33-6.54-28.66-8.04-43.31-2.87-11.9-3.1-24.07-3.78-36.2-.22-3.83-.29-7.68-.75-11.49-1.93-15.95-1.83-31.88-.14-47.85.61-5.72.76-11.48 1.09-17.23.58-10.21 1.33-20.37 3.13-30.5 1.57-8.79 2.82-17.65 4.44-26.45 6.51-35.35 16.94-69.51 31.09-102.51 14.4-33.59 31.9-65.47 52.96-95.42 24.04-34.2 51.79-65.05 83.2-92.51 34.33-30.02 71.99-55.21 112.99-75.33 35.73-17.52 73.09-30.4 111.69-39.85 10.14-1.32 19.9-4.8 30.16-5.46 14.95-3.83 30.47-3.4 45.58-6.07 4.38-.77 8.92-.66 13.4-.8 17.26-.55 34.53-.54 51.8-.02 7.03.21 14.06.43 21 1.84 2.5.51 5.06.91 7.6.96 14.15.27 27.8 4.12 41.78 5.59 19.35 4.19 38.69 8.5 57.51 14.71 16.38 5.4 32.59 11.24 48.5 17.99 41.47 17.61 79.73 40.59 115.13 68.3 28.78 22.53 54.94 47.82 78.32 76.03 28.31 34.16 52.06 71.17 71.08 111.23 15.13 31.87 26.35 65.13 34.99 99.3 3.19 17.59 7.92 34.92 9.21 52.84 4.18 22.14 3.69 44.56 4.15 69.71Zm-518.9 363.95c10.5-.4 21.43-.23 32.21-1.41 10.83-1.18 21.66-1.69 32.51-2.33 3.82-.23 7.72-.37 11.42-1.24 16.78-3.93 33.69-7.34 50.24-12.25 35.04-10.41 68.63-24.22 100.62-41.97 29.75-16.5 57.54-35.81 83.2-58.07 31-26.88 59-56.69 84.19-89.11 17.67-22.74 33.67-46.65 49.01-71 4.77-7.57 9.12-15.4 13.73-23.06 3.08-5.11 4.13-10.68 4.04-16.54-.08-5.16-.83-10.18-3.18-14.87-1.14-2.28-2.04-4.69-3.15-6.99-13.37-27.65-28.07-54.57-44.7-80.41-18.72-29.09-39.38-56.75-62.48-82.48-20.52-22.85-42.29-44.45-65.98-64.11-15.77-13.09-32.04-25.44-49.21-36.59-30.68-19.92-63.16-36.18-97.87-47.94-15.15-5.13-30.68-8.79-46.16-12.71-12.7-1.36-25.06-5.11-37.93-5.4-3.82-.09-7.65-.62-11.42-1.29-6.33-1.12-12.71-1.4-19.1-1.45-8.95-.07-17.9-.09-26.85.02-4.47.06-9 .07-13.39.79-8.86 1.44-17.8 1.89-26.72 2.57-3.19.24-6.4.42-9.53 1.01-17.57 3.3-35.21 6.24-52.57 10.57-43.12 10.76-83.59 27.8-121.39 51.13-45.05 27.82-83.61 63.03-117.25 103.75-17.94 21.71-34.21 44.65-49.2 68.49-12.59 20.03-25.24 40.01-37.73 60.1-5.4 8.68-10.5 17.55-15.64 26.39-4.22 7.24-6.93 15.1-8.81 23.22-1.02 4.4-1.01 8.9.16 13.31 1.64 6.19 3.75 12.17 6.94 17.8 6.64 11.73 14.7 22.46 22.8 33.16 13.12 17.33 26.4 34.54 39.54 51.86 13.92 18.35 28.43 36.21 44.43 52.81 19.54 20.28 39.66 39.9 61.99 57.16 23.84 18.43 49.06 34.65 75.86 48.42 23.95 12.3 49.02 21.72 74.73 29.6 13.46 4.12 27.24 6.88 40.85 10.33 12.73 1.2 25.07 5.04 37.94 5.33 3.81.09 7.65.68 11.41 1.36 5.69 1.04 11.43 1.37 17.18 1.52 8.31.22 16.62.33 25.3.5Z"/><path fill="#05070a" d="M513.18 882.84c-8.68-.17-16.99-.28-25.3-.5-5.75-.16-11.49-.49-17.18-1.52-3.76-.69-7.6-1.28-11.41-1.36-12.87-.29-25.21-4.14-37.94-5.33-13.61-3.45-27.39-6.21-40.85-10.33-25.71-7.87-50.79-17.3-74.73-29.6-26.8-13.77-52.02-29.99-75.86-48.42-22.33-17.27-42.45-36.89-61.99-57.16-16-16.6-30.5-34.46-44.43-52.81-13.14-17.32-26.42-34.53-39.54-51.86-8.1-10.7-16.17-21.43-22.8-33.16-3.19-5.63-5.3-11.61-6.94-17.8-1.16-4.4-1.18-8.9-.16-13.31 1.89-8.12 4.6-15.98 8.81-23.22 5.14-8.84 10.24-17.71 15.64-26.39 12.49-20.09 25.14-40.07 37.73-60.1 14.99-23.85 31.26-46.78 49.2-68.49 33.64-40.72 72.2-75.93 117.25-103.75 37.8-23.34 78.27-40.38 121.39-51.13 17.36-4.33 35-7.27 52.57-10.57 3.13-.59 6.35-.77 9.53-1.01 8.92-.68 17.86-1.13 26.72-2.57 4.39-.72 8.92-.73 13.39-.79 8.95-.11 17.9-.09 26.85-.02 6.39.05 12.77.33 19.1 1.45 3.77.67 7.6 1.21 11.42 1.29 12.87.29 25.23 4.03 37.93 5.4 15.47 3.92 31 7.57 46.16 12.71 34.71 11.76 67.19 28.01 97.87 47.94 17.17 11.15 33.44 23.51 49.21 36.59 23.69 19.65 45.47 41.26 65.98 64.11 23.1 25.73 43.76 53.39 62.48 82.48 16.63 25.84 31.33 52.75 44.7 80.41 1.11 2.3 2.01 4.71 3.15 6.99 2.35 4.69 3.1 9.71 3.18 14.87.09 5.86-.96 11.43-4.04 16.54-4.62 7.66-8.97 15.49-13.73 23.06-15.34 24.35-31.34 48.26-49.01 71-25.18 32.41-53.19 62.23-84.19 89.11-25.66 22.25-53.46 41.56-83.2 58.07-31.99 17.75-65.58 31.56-100.62 41.97-16.55 4.92-33.46 8.33-50.24 12.25-3.7.87-7.6 1.01-11.42 1.24-10.84.65-21.68 1.15-32.51 2.33-10.78 1.18-21.7 1-32.21 1.41Zm4.49-87.91v.19c3.84 0 7.67-.05 11.51 0 18.62.26 37.03-2.11 55.26-5.38 13.8-2.48 27.43-5.93 40.95-9.87 28.41-8.28 55.21-20.11 80.64-35.08 32.15-18.93 60.93-42.24 87.06-68.76 10.76-10.92 20.97-22.43 30.82-34.18 16.45-19.6 31.59-40.22 45.74-61.56 2.12-3.2 4.14-6.46 6.06-9.78 1.29-2.23 1.88-4.72 2.11-7.31.46-5.24-.43-10.12-3.07-14.76-8.52-15.02-17.41-29.79-26.93-44.22-24.81-37.59-54.06-71.28-87.56-101.32-4.28-3.84-8.73-7.49-13.18-11.14-17.35-14.21-35.92-26.67-55.16-38.14-10.99-6.55-22.42-12.28-33.95-17.81-3.56-1.7-7.32-2.1-11.2-2.02-2.73.05-4.39.91-4.37 2.38.02 1.3.39 2.47 1.48 3.35 2.48 2.02 4.97 4.01 7.5 5.96 12.19 9.44 23.07 20.26 32.94 32.05 14.04 16.76 25.48 35.2 34.27 55.24 9.03 20.59 15.66 41.87 17.82 64.38.24 2.54.48 5.11 1.03 7.6 1.39 6.3 1.54 12.68 1.57 19.08.06 10.24.11 20.47-2.18 30.54-.42 1.86-.53 3.8-.63 5.72-.53 10.3-3.2 20.21-6 30.02-8.87 31.1-23.36 59.28-43.83 84.51-13.85 17.07-29.87 31.56-47.88 43.9-24.53 16.8-51.3 28.54-80.57 34.31-5.63 1.11-11.1 3.02-16.92 3.26-8.94.38-17.88 1.34-26.82 1.34-17.26 0-34.44-.69-51.43-4.68-13.75-3.23-27.11-7.4-39.99-13.08-36.5-16.1-66.16-41.08-90.79-72.02-28.22-35.44-44.67-82.06-45.71-125.85-.23-9.59-.24-19.19-.07-28.77.19-10.88 1.51-21.6 3.62-32.33 3.98-20.23 10.33-39.55 19.65-57.88 13.77-27.1 32.35-50.55 54.65-71.09 4.23-3.9 8.79-7.43 13.12-11.22.93-.81 1.62-1.94 2.26-3.02.3-.51.43-1.33.23-1.85-.17-.44-.88-.8-1.41-.97-3.23-1.03-6.25-.33-9.23 1.07-36.71 17.21-70.36 39.16-100.83 65.86-22.66 19.86-43.07 41.91-61.46 65.79-14.45 18.77-27.63 38.41-39.91 58.64-4.31 7.1-8.32 14.39-12.12 21.78-4.42 8.6-3.97 17.26.84 25.64 1.59 2.77 3.23 5.52 5.04 8.15 5.09 7.36 10.13 14.77 15.48 21.94 17.23 23.09 35.65 45.16 56.33 65.29 8.72 8.48 17.9 16.41 27.14 24.31 19.5 16.66 40.28 31.52 62.07 44.96 14.14 8.73 28.62 16.94 43.82 23.72 25.72 11.49 52.02 21.29 79.89 26.31 8.52 3 17.61 2.98 26.36 4.92 8.74 1.93 17.81 1.6 26.76 1.85 6.39.18 12.79.04 19.18.04Zm-6.49-377.08v-.32c-3.83.14-7.65.26-11.48.43-1.27.06-2.54.25-3.81.35-2.42.19-4.33 1.45-4.21 2.98.1 1.21.06 2.63.68 3.56 2.48 3.71 5.39 7.13 7.8 10.89 7.29 11.37 13.17 23.33 14.5 37.06.18 1.9.77 3.75 1.04 5.64.18 1.26.31 2.57.12 3.82-1.12 7.56-2.05 15.13-4.61 22.42-3.22 9.15-8.11 17.23-13.97 24.91-5.11 6.71-11.09 12.34-18.06 16.93-9.76 6.43-20.33 10.48-32.24 10.64-10.87.15-21.69.05-32.3-2.76-.53-.14-1.2.18-1.8.32-1.38.34-2.2 1.4-1.69 2.87 7.8 22.44 22.34 39.8 40.92 54.1.51.39 1.03.75 1.57 1.09 17.07 10.95 35.56 16.89 56.01 16.51 7.12-.13 13.88-1.78 20.73-3.27 11.34-2.48 21.76-7.17 31.72-12.95 9.48-5.5 17.49-12.79 24.75-20.93 14.01-15.71 21.61-34.4 25.4-54.86 1.12-14.69 1.17-29.21-2.87-43.66-5.48-19.57-14.96-36.51-30.17-50.09-17.22-15.37-37.21-24.33-60.41-25.65-2.54-.14-5.1-.02-7.65-.02Z"/><path d="M517.68 794.93c-6.39 0-12.79.15-19.18-.04-8.95-.25-18.01.08-26.76-1.85-8.75-1.93-17.84-1.91-26.36-4.92-27.86-5.02-54.16-14.82-79.89-26.31-15.2-6.79-29.68-14.99-43.82-23.72-21.79-13.44-42.58-28.3-62.07-44.96-9.24-7.9-18.42-15.82-27.14-24.31-20.68-20.13-39.1-42.2-56.33-65.29-5.35-7.17-10.38-14.58-15.48-21.94-1.82-2.62-3.45-5.38-5.04-8.15-4.81-8.38-5.27-17.04-.84-25.64 3.8-7.38 7.81-14.68 12.12-21.78 12.28-20.24 25.45-39.88 39.91-58.64 18.4-23.89 38.8-45.94 61.46-65.79 30.47-26.7 64.12-48.65 100.83-65.86 2.98-1.4 6-2.1 9.23-1.07.54.17 1.25.53 1.41.97.2.53.07 1.35-.23 1.85-.64 1.08-1.33 2.2-2.26 3.02-4.33 3.79-8.89 7.32-13.12 11.22-22.3 20.55-40.88 44-54.65 71.09-9.32 18.34-15.67 37.66-19.65 57.88-2.11 10.73-3.43 21.46-3.62 32.33-.17 9.59-.16 19.19.07 28.77 1.04 43.79 17.49 90.4 45.71 125.85 24.63 30.94 54.29 55.92 90.79 72.02 12.88 5.68 26.24 9.85 39.99 13.08 16.99 3.99 34.17 4.68 51.43 4.68 8.94 0 17.87-.97 26.82-1.34 5.82-.24 11.29-2.15 16.92-3.26 29.27-5.76 56.03-17.51 80.57-34.31 18.02-12.34 34.03-26.83 47.88-43.9 20.47-25.23 34.96-53.4 43.83-84.51 2.8-9.81 5.47-19.72 6-30.02.1-1.91.2-3.86.63-5.72 2.28-10.08 2.24-20.31 2.18-30.54-.04-6.4-.18-12.78-1.57-19.08-.55-2.49-.79-5.05-1.03-7.6-2.16-22.51-8.78-43.78-17.82-64.38-8.79-20.04-20.23-38.47-34.27-55.24-9.87-11.79-20.75-22.61-32.94-32.05-2.53-1.95-5.02-3.95-7.5-5.96-1.08-.88-1.45-2.05-1.48-3.35-.03-1.47 1.64-2.32 4.37-2.38 3.88-.08 7.65.32 11.2 2.02 11.53 5.53 22.96 11.25 33.95 17.81 19.25 11.47 37.81 23.93 55.16 38.14 4.45 3.65 8.9 7.3 13.18 11.14 33.5 30.04 62.75 63.73 87.56 101.32 9.52 14.42 18.41 29.2 26.93 44.22 2.63 4.64 3.53 9.52 3.07 14.76-.23 2.58-.82 5.08-2.11 7.31-1.92 3.32-3.94 6.58-6.06 9.78-14.15 21.33-29.29 41.95-45.74 61.56-9.86 11.75-20.07 23.26-30.82 34.18-26.13 26.53-54.92 49.83-87.06 68.76-25.43 14.97-52.23 26.8-80.64 35.08-13.52 3.94-27.15 7.39-40.95 9.87-18.23 3.28-36.64 5.65-55.26 5.38-3.84-.05-7.67 0-11.51 0v-.19Z" class="cls-1"/><path d="M511.18 417.85c2.55 0 5.11-.12 7.65.02 23.2 1.32 43.19 10.28 60.41 25.65 15.21 13.57 24.7 30.52 30.17 50.09 4.04 14.45 4 28.97 2.87 43.66-3.79 20.45-11.4 39.15-25.4 54.86-7.26 8.14-15.27 15.42-24.75 20.93-9.96 5.79-20.38 10.48-31.72 12.95-6.85 1.5-13.62 3.14-20.73 3.27-20.45.38-38.95-5.56-56.01-16.51-.54-.34-1.07-.7-1.57-1.09-18.58-14.29-33.12-31.66-40.92-54.1-.51-1.47.31-2.53 1.69-2.87.59-.15 1.26-.46 1.8-.32 10.61 2.81 21.43 2.91 32.3 2.76 11.9-.16 22.47-4.21 32.24-10.64 6.97-4.59 12.95-10.22 18.06-16.93 5.85-7.69 10.75-15.76 13.97-24.91 2.56-7.29 3.49-14.87 4.61-22.42.18-1.24.05-2.56-.12-3.82-.27-1.89-.86-3.75-1.04-5.64-1.33-13.73-7.21-25.69-14.5-37.06-2.41-3.75-5.32-7.18-7.8-10.89-.62-.93-.59-2.35-.68-3.56-.12-1.53 1.79-2.78 4.21-2.98 1.27-.1 2.54-.3 3.81-.35 3.82-.17 7.65-.29 11.48-.43v.32Z" class="cls-1"/></g></svg>