<svg xmlns="http://www.w3.org/2000/svg" id="Layer_2" viewBox="0 0 1029.72 1029.62"><defs><style>.cls-2{fill:#258ccc}</style></defs><g id="Layer_1-2"><path d="M1029.72 516.06c-.13 10.23-.55 20.47-.32 30.69.39 18.01-2.08 35.76-5.02 53.39-4.42 26.49-10.99 52.52-19.64 77.98-20.59 60.6-51.28 115.61-92.32 164.67-55.16 65.95-122.5 115.58-202 148.48-27.21 11.26-55.2 20.08-83.99 26.38-14.37 3.14-28.72 6.24-43.39 7.57-18.93 3.71-38.15 3.74-57.31 4.24-18.55.48-37.09-.17-55.61-1.25-5.1-.3-10.17-1.02-15.24-1.64-3.17-.39-6.31-1.11-9.48-1.4-17.24-1.57-34.11-5.3-50.85-9.39-62.13-15.16-119.7-40.78-171.97-77.66C122.4 867.42 54.23 773.49 19.45 655.66c-5.07-17.17-8.97-34.59-12.05-52.25-4.19-23.99-7.03-48.04-7.3-72.4-.18-16.63-.14-33.26.59-49.88.39-8.95.98-17.85 2.53-26.71 1.76-10.06 1.72-20.41 4.59-30.31 4.99-31.04 13.67-61.11 24.74-90.44 19.1-50.64 45.77-97.09 79.63-139.29C163.91 129.9 227.51 80.51 302.72 46.22c35.59-16.23 72.53-28.37 111.04-35.67 23.16-4.39 31.41-5.8 51.15-7.5 1.91-.16 3.84-.24 5.73-.51C495.47-.99 520.41-.07 545.33.83c7.01.25 13.97 1.7 20.97 2.15 26.27 1.67 51.93 6.95 77.33 13.36 25.42 6.42 50.18 14.94 74.32 25.28 71.73 30.72 133.23 75.59 184.84 133.94 41.94 47.41 73.89 100.94 96.14 160.28 9 23.99 15.87 48.56 21.55 73.5 1.26 10.15 4.21 20.01 5.21 30.22.68 6.99 2.34 13.9 2.8 20.89.68 10.2.76 20.45.93 30.68.14 8.31.03 16.63.03 24.94h.26Zm-610.5 392.33c10.63 2.67 29.84 7.42 49.59 9.54 1.27.14 2.55.29 3.78.63 7.47 2.03 15.14 2.33 22.79 2.85 4.46.3 8.96.5 13.36 1.21 8.25 1.34 16.54 1.61 24.85 1.64 14.06.06 28.14.41 42.07-2.2 1.25-.23 2.54-.26 3.82-.33 10.21-.61 20.3-1.88 30.38-3.86 18.38-3.6 35.99-7.58 55.56-14.3 14.51-4.98 28.78-10.61 42.41-17.65 18.86-9.73 36.12-21.71 50.62-37.43 12.74-13.81 22.42-29.48 28.83-47.11 5.04-13.88 8.18-28.18 8.68-43.03.52-15.37.68-30.77-1.77-45.94-3.59-22.14-9.85-43.58-19.52-63.95-10.75-22.65-24.1-43.63-40.13-62.86-13.1-15.71-26.4-31.26-39.71-46.78-15.4-17.96-30.33-36.3-43.96-55.66-9.59-13.61-18.12-27.84-25.37-42.84-8.41-17.4-14.69-35.39-15.73-54.9-.07-1.27-.25-2.55-.46-3.81-.63-3.82-.55-7.63-.1-11.46.53-4.44.96-8.9 1.33-13.36.43-5.13 1.77-10.02 3.15-14.97 4-14.3 10.17-27.55 18.39-39.86 7.11-10.65 14.95-20.72 23.86-29.96 16.1-16.69 34.38-30.52 54.5-41.98 15.57-8.87 31.79-16.37 48.42-23 19.57-7.8 39.18-15.5 58.76-23.3 2.36-.94 4.59-2.24 6.93-3.23 1.4-.59 1.98-1.51 1.35-3.02-.16-.38-.87-.76-1.33-.76-15.33-.17-30.67-.43-46-.38-7.02.02-14.02.65-20.97 1.99-5.01.96-10.12 1.42-15.2 1.89-5.73.52-11.45 1.01-17.09 2.3-3.1.71-6.3 1.09-9.48 1.31-12.77.88-25.19 4.25-37.94 5.29-11.19 2.69-22.76 3.25-33.92 6.09-16.48 2.15-32.66 5.96-48.88 9.43-32.34 6.93-76.9 19.24-109.07 29.31-36.59 11.46-72.52 24.64-107.4 40.65-46.69 21.42-90.32 47.69-130.17 80.24-32.55 26.59-59.62 57.72-80.31 94.36-10.09 17.87-18.45 36.51-24.75 56.01-6.09 18.86-11.16 38-12.87 57.86-.22 2.54-.58 5.09-1.09 7.59-1.14 5.67-1.46 11.41-1.58 17.17-.25 11.51-.87 23.08.58 34.49 1.77 13.92 3.17 27.9 6.42 41.64 6.07 25.67 15.16 50.09 28.11 73.08 18.76 33.29 43.61 61.46 72.79 85.83 28.15 23.5 59.49 41.86 93.22 56.24 26.5 11.29 53.76 20.19 90.26 29.28Z" class="cls-2"/><path fill="#05070a" d="M419.22 908.39c-36.49-9.09-63.75-17.99-90.26-29.28-33.74-14.37-65.08-32.74-93.22-56.24-29.18-24.36-54.03-52.54-72.79-85.83-12.96-22.99-22.05-47.41-28.11-73.08-3.25-13.74-4.66-27.72-6.42-41.64-1.45-11.41-.83-22.99-.58-34.49.13-5.75.45-11.5 1.58-17.17.5-2.5.87-5.05 1.09-7.59 1.71-19.86 6.78-39 12.87-57.86 6.3-19.51 14.66-38.15 24.75-56.01 20.69-36.64 47.76-67.77 80.31-94.36 39.85-32.55 83.48-58.81 130.17-80.24 34.88-16.01 70.81-29.19 107.4-40.65 32.17-10.07 76.72-22.39 109.07-29.31 16.21-3.47 32.39-7.29 48.88-9.43 11.16-2.84 22.73-3.41 33.92-6.09 12.75-1.04 25.17-4.41 37.94-5.29 3.18-.22 6.38-.6 9.48-1.31 5.64-1.29 11.35-1.78 17.09-2.3 5.09-.46 10.2-.92 15.2-1.89 6.95-1.33 13.95-1.96 20.97-1.99 15.33-.05 30.67.21 46 .38.46 0 1.17.38 1.33.76.63 1.51.05 2.42-1.35 3.02-2.34 1-4.57 2.29-6.93 3.23-19.57 7.79-39.18 15.5-58.76 23.3-16.63 6.62-32.85 14.13-48.42 23-20.11 11.46-38.39 25.3-54.5 41.98-8.91 9.23-16.75 19.3-23.86 29.96-8.22 12.32-14.39 25.57-18.39 39.86-1.38 4.94-2.73 9.84-3.15 14.97-.37 4.46-.8 8.92-1.33 13.36-.45 3.84-.53 7.64.1 11.46.21 1.26.39 2.53.46 3.81 1.03 19.51 7.32 37.5 15.73 54.9 7.25 15 15.78 29.23 25.37 42.84 13.63 19.36 28.56 37.69 43.96 55.66 13.31 15.53 26.61 31.07 39.71 46.78 16.04 19.23 29.39 40.21 40.13 62.86 9.67 20.37 15.93 41.81 19.52 63.95 2.45 15.16 2.29 30.57 1.77 45.94-.51 14.86-3.64 29.15-8.68 43.03-6.41 17.63-16.09 33.3-28.83 47.11-14.5 15.71-31.76 27.7-50.62 37.43-13.64 7.03-27.9 12.66-42.41 17.65-19.57 6.72-37.18 10.7-55.56 14.3-10.08 1.97-20.17 3.24-30.38 3.86-1.28.08-2.57.1-3.82.33-13.93 2.61-28.01 2.26-42.07 2.2-8.31-.03-16.6-.31-24.85-1.64-4.4-.71-8.9-.91-13.36-1.21-7.65-.52-15.33-.82-22.79-2.85-1.23-.33-2.51-.49-3.78-.63-19.74-2.12-38.95-6.87-49.59-9.54Zm53.28-33.71c4.58-.15 9.68-.29 14.78-.49 6.44-.26 12.64-1.89 18.66-3.95 4.25-1.45 7.94-4.12 10.66-7.81 7.82-10.61 8.51-24.61 1.23-35.92-1.37-2.14-2.89-4.24-4.64-6.07-3.53-3.68-7.1-7.35-10.93-10.71-20.81-18.24-44.09-32.45-69.61-43.15-21.93-9.19-44.85-14.5-68.28-17.6-12.01-1.59-24.19-1.4-36.33-.85-5.88.27-11.31 1.97-16.46 4.57-4.63 2.34-8.35 5.78-11.21 10.16-3.25 4.96-4.69 10.39-4.87 16.27-.23 7.32 1.83 13.81 6.38 19.57 3.57 4.53 7.62 8.58 11.87 12.46 11.82 10.81 24.78 20.13 38.51 28.28 22.05 13.09 45.36 23.25 70.58 28.6 7.85 3.09 16.34 2.72 24.42 4.48 8.18 1.78 16.42 2.23 25.25 2.16Z"/><path d="M472.5 874.68c-8.84.08-17.07-.37-25.25-2.16-8.08-1.76-16.56-1.39-24.42-4.48-25.22-5.34-48.53-15.51-70.58-28.6-13.73-8.15-26.69-17.47-38.51-28.28-4.24-3.88-8.3-7.93-11.87-12.46-4.55-5.77-6.61-12.25-6.38-19.57.19-5.88 1.63-11.31 4.87-16.27 2.87-4.38 6.59-7.83 11.21-10.16 5.15-2.61 10.58-4.3 16.46-4.57 12.14-.55 24.32-.74 36.33.85 23.43 3.1 46.35 8.41 68.28 17.6 25.53 10.69 48.81 24.91 69.61 43.15 3.83 3.36 7.41 7.02 10.93 10.71 1.75 1.83 3.27 3.93 4.64 6.07 7.27 11.32 6.59 25.31-1.23 35.92-2.72 3.69-6.41 6.37-10.66 7.81-6.03 2.06-12.23 3.69-18.66 3.95-5.1.21-10.2.34-14.78.49Z" class="cls-2"/></g></svg>